<?xml version="1.0" standalone="no"?>
<!DOCTYPE svg PUBLIC "-//W3C//DTD SVG 20010904//EN"
 "http://www.w3.org/TR/2001/REC-SVG-20010904/DTD/svg10.dtd">
<svg version="1.0" xmlns="http://www.w3.org/2000/svg"
 width="300.000000pt" height="300.000000pt" viewBox="0 0 300.000000 300.000000"
 preserveAspectRatio="xMidYMid meet">
<metadata>
Created by potrace 1.14, written by Peter Selinger 2001-2017
</metadata>
<g transform="translate(0.000000,300.000000) scale(0.100000,-0.100000)"
fill="#000000" stroke="none">
<path d="M0 2980 c0 -7 48 -10 131 -9 197 3 222 17 32 18 -104 1 -163 -3 -163
-9z"/>
<path d="M343 2983 c8 -7 258 -6 265 2 3 3 -57 5 -133 5 -76 0 -135 -3 -132
-7z"/>
<path d="M648 2983 c12 -2 30 -2 40 0 9 3 -1 5 -23 4 -22 0 -30 -2 -17 -4z"/>
<path d="M1611 2736 c-14 -14 -30 -26 -36 -26 -19 0 -58 -48 -52 -64 4 -11 15
-13 41 -9 24 4 36 2 36 -6 0 -6 7 -11 15 -11 18 0 18 -5 5 -30 -6 -11 -6 -21
-1 -24 5 -3 12 11 16 32 10 54 13 55 46 22 17 -16 37 -30 45 -30 8 0 23 -5 34
-12 15 -10 22 -9 38 6 30 26 35 3 7 -28 -14 -15 -25 -34 -25 -42 0 -12 4 -12
33 0 17 7 31 18 30 25 -5 22 39 11 66 -17 16 -15 33 -26 38 -25 6 2 16 -3 23
-12 17 -21 42 -19 68 5 23 21 42 26 42 10 0 -5 11 -12 25 -16 33 -8 50 -38 31
-53 -8 -7 -16 -21 -19 -31 -4 -15 0 -20 16 -20 17 0 19 -2 8 -9 -8 -5 -11 -16
-7 -26 8 -21 -2 -38 -17 -28 -19 12 -59 15 -53 4 4 -6 -2 -19 -12 -29 -15 -15
-16 -20 -5 -31 7 -7 11 -16 8 -22 -4 -5 1 -9 10 -9 8 0 18 -7 22 -15 5 -14 8
-14 24 1 23 20 24 34 5 34 -33 0 -31 55 1 57 10 1 30 3 45 6 32 5 69 -16 53
-31 -16 -15 -63 -23 -70 -12 -3 5 -13 6 -21 3 -21 -8 1 -23 34 -23 12 0 22 -4
22 -10 0 -5 7 -10 15 -10 14 0 20 -13 16 -34 -1 -5 5 -3 14 4 14 11 18 10 31
-8 8 -12 22 -22 30 -22 8 0 14 -5 14 -11 0 -18 73 -2 88 18 7 10 20 18 30 18
12 0 16 7 14 25 -3 30 -24 80 -34 80 -3 0 -15 3 -25 6 -15 6 -16 4 -5 -7 17
-18 15 -30 -3 -23 -8 4 -22 3 -32 0 -14 -6 -14 -8 3 -21 22 -16 16 -19 -51
-30 -32 -5 -38 -4 -27 6 17 18 15 26 -9 32 -15 4 -19 11 -15 25 4 12 -2 28
-19 46 -29 31 -30 36 -10 36 8 0 15 -4 15 -9 0 -10 40 -19 56 -14 6 2 8 17 6
34 -6 40 -62 99 -94 99 -35 0 -83 26 -103 56 -29 44 -144 80 -146 46 0 -11 -2
-12 -6 -4 -2 6 -11 12 -18 12 -7 0 -23 11 -36 25 -13 13 -28 25 -34 25 -5 0
-3 -5 5 -10 13 -8 12 -10 -2 -10 -10 0 -18 6 -18 14 0 17 -39 48 -52 40 -4 -3
-8 -1 -8 5 0 6 -7 8 -15 5 -8 -3 -31 4 -52 17 -20 13 -33 17 -29 10 7 -10 4
-11 -12 -2 -11 6 -22 20 -24 32 -3 20 -4 20 -27 -5z m611 -288 c-9 -9 -15 -9
-24 0 -9 9 -7 12 12 12 19 0 21 -3 12 -12z m-28 -24 c9 -3 16 -14 16 -23 0
-10 3 -12 8 -5 7 10 52 14 52 4 0 -3 -9 -11 -21 -18 -18 -11 -24 -11 -38 2
-10 9 -24 16 -32 17 -11 0 -12 2 0 6 11 5 11 7 0 14 -16 10 -8 12 15 3z"/>
<path d="M1242 2729 c2 -7 10 -15 17 -17 8 -3 12 1 9 9 -2 7 -10 15 -17 17 -8
3 -12 -1 -9 -9z"/>
<path d="M1084 2718 c-4 -6 1 -17 12 -25 20 -15 30 -4 20 22 -6 18 -22 19 -32
3z"/>
<path d="M1010 2670 c0 -3 5 -11 12 -18 7 -7 8 -12 2 -12 -5 0 -10 -9 -11 -21
-2 -17 3 -20 30 -17 18 2 31 8 30 15 -2 7 16 4 50 -8 28 -10 60 -19 69 -19 11
0 15 -5 12 -15 -4 -8 -1 -15 6 -15 6 0 9 4 6 9 -6 10 27 48 64 74 13 9 20 17
14 17 -5 0 -19 -7 -31 -15 -20 -14 -23 -14 -33 2 -8 13 -13 14 -16 5 -3 -6
-10 -9 -16 -6 -6 4 -14 0 -19 -7 -6 -11 -9 -8 -9 8 0 17 -6 22 -29 21 -20 -1
-28 -5 -24 -15 4 -9 0 -11 -11 -7 -8 3 -14 11 -13 17 1 7 -15 12 -40 12 -24 1
-43 -1 -43 -5z"/>
<path d="M757 2663 c-11 -10 -8 -43 4 -43 6 0 8 -9 4 -21 -5 -15 -4 -19 4 -15
13 8 14 55 3 74 -5 7 -11 9 -15 5z"/>
<path d="M1313 2645 c0 -17 6 -18 25 -6 11 7 10 10 -3 15 -22 8 -22 8 -22 -9z"/>
<path d="M945 2595 c-5 -2 -30 -9 -54 -15 -28 -8 -40 -15 -32 -19 9 -6 6 -10
-9 -14 -14 -4 -21 -11 -17 -20 7 -18 -11 -37 -29 -30 -8 3 -14 0 -14 -5 0 -6
-7 -18 -16 -26 -12 -13 -12 -16 -2 -16 8 0 19 5 26 12 9 9 12 9 12 -1 0 -8 7
-11 20 -8 11 3 30 -3 45 -15 35 -27 31 -41 -5 -20 -23 13 -34 14 -47 6 -23
-14 -29 -44 -12 -55 11 -6 11 -11 1 -21 -19 -19 -15 -37 8 -31 11 3 20 0 20
-6 0 -6 17 -11 41 -11 64 0 129 56 84 74 -8 3 -21 3 -29 0 -7 -3 -16 2 -19 10
-6 16 -3 17 38 21 67 5 106 28 70 41 -8 4 -13 10 -10 14 3 4 -1 8 -8 7 -29 -1
-50 3 -44 9 3 4 1 16 -5 28 -7 11 -12 24 -13 28 0 3 -3 9 -7 13 -4 4 0 18 9
31 8 13 14 24 12 23 -2 0 -8 -2 -14 -4z m-35 -142 c0 -18 -7 -16 -30 7 -12 12
-18 25 -15 30 7 11 45 -20 45 -37z"/>
<path d="M1240 2560 c0 -5 5 -10 10 -10 6 0 10 5 10 10 0 6 -4 10 -10 10 -5 0
-10 -4 -10 -10z"/>
<path d="M1105 2550 c-3 -6 -11 -8 -16 -5 -21 14 -7 -15 17 -34 15 -12 22 -21
15 -21 -16 0 -14 -14 8 -37 11 -11 19 -29 18 -39 -1 -11 6 -20 16 -22 16 -3
18 0 12 19 -4 13 -14 29 -21 37 -16 15 -16 13 -5 70 5 23 4 42 0 42 -5 0 -9
-5 -9 -11 0 -8 -4 -8 -14 0 -10 8 -16 9 -21 1z"/>
<path d="M1690 2549 c0 -5 5 -7 10 -4 6 3 10 8 10 11 0 2 -4 4 -10 4 -5 0 -10
-5 -10 -11z"/>
<path d="M1590 2490 c0 -5 5 -10 11 -10 5 0 7 5 4 10 -3 6 -8 10 -11 10 -2 0
-4 -4 -4 -10z"/>
<path d="M1170 2480 c0 -5 7 -10 15 -10 8 0 15 5 15 10 0 6 -7 10 -15 10 -8 0
-15 -4 -15 -10z"/>
<path d="M1091 2464 c0 -11 3 -14 6 -6 3 7 2 16 -1 19 -3 4 -6 -2 -5 -13z"/>
<path d="M1310 2429 c0 -6 -7 -9 -15 -6 -8 4 -17 2 -20 -3 -4 -7 -13 -6 -25 0
-10 5 -26 7 -35 4 -14 -6 -14 -8 1 -19 15 -10 15 -14 3 -21 -8 -5 -21 -18 -29
-28 -14 -17 -13 -18 5 -13 115 31 115 31 115 54 0 13 5 23 10 23 6 0 10 5 10
10 0 6 -4 10 -10 10 -5 0 -10 -5 -10 -11z"/>
<path d="M1656 2415 c4 -8 10 -12 15 -9 14 8 10 24 -6 24 -9 0 -12 -6 -9 -15z"/>
<path d="M1717 2423 c-12 -12 -7 -22 8 -17 8 4 15 10 15 15 0 11 -14 12 -23 2z"/>
<path d="M572 2397 c-12 -13 -22 -29 -22 -37 0 -7 -3 -11 -6 -7 -12 12 -65
-24 -62 -41 3 -14 13 -16 48 -14 51 4 74 24 84 69 10 44 -14 60 -42 30z"/>
<path d="M681 2399 c-9 -16 -8 -19 4 -19 13 0 14 -4 5 -21 -6 -11 -17 -22 -23
-24 -81 -29 -81 -34 2 -88 76 -49 110 -85 92 -96 -19 -12 29 -23 66 -15 25 5
34 1 56 -28 14 -18 33 -41 42 -50 19 -23 19 -31 0 -34 -8 -1 -15 1 -15 5 0 5
-11 6 -25 3 -34 -6 -26 -27 11 -28 22 0 28 -4 26 -18 -3 -14 3 -17 25 -14 15
2 30 9 33 17 5 10 14 6 38 -14 26 -22 33 -24 38 -12 3 9 12 13 19 11 23 -9 91
38 80 56 -5 8 -10 8 -20 0 -9 -8 -15 -8 -20 0 -10 17 -38 12 -31 -6 10 -27
-17 -10 -42 27 -13 19 -19 35 -13 37 6 2 11 8 11 14 0 5 -9 7 -19 3 -11 -3
-22 -1 -26 5 -3 5 1 10 9 10 8 0 17 4 20 9 10 16 -38 -2 -51 -18 -11 -14 -12
-13 -13 7 0 13 -4 21 -9 17 -6 -3 -14 3 -20 12 -9 16 -10 16 -11 -5 0 -22 0
-22 -27 -5 -26 17 -26 18 -6 21 23 3 22 32 -1 32 -20 0 -59 48 -53 64 8 21 -9
29 -48 22 -20 -4 -35 -13 -37 -24 -3 -13 -8 -8 -20 16 -16 31 -16 33 3 43 11
5 17 14 14 20 -4 5 -10 7 -15 4 -8 -5 -20 18 -20 38 0 7 9 1 19 -12 19 -25 41
-22 41 7 0 10 -16 23 -39 33 -36 15 -39 15 -50 -2z m339 -334 c0 -8 -7 -15
-15 -15 -16 0 -20 12 -8 23 11 12 23 8 23 -8z"/>
<path d="M1455 2411 c-6 -11 9 -23 19 -14 9 9 7 23 -3 23 -6 0 -12 -4 -16 -9z"/>
<path d="M1055 2400 c-4 -6 -4 -24 0 -40 5 -23 3 -30 -8 -30 -9 0 -17 6 -20
13 -3 9 -7 9 -17 0 -10 -9 -8 -15 6 -31 17 -17 22 -18 52 -5 18 7 35 21 38 31
3 9 10 25 15 36 7 11 7 16 1 12 -6 -3 -12 1 -16 9 -6 17 -42 20 -51 5z"/>
<path d="M1518 2389 c-10 -10 -24 -16 -33 -13 -11 5 -13 2 -9 -10 7 -17 34
-22 34 -6 0 6 7 10 16 10 10 0 14 -7 12 -22 -2 -13 -9 -22 -16 -20 -15 3 -16
-10 0 -26 9 -9 15 -9 26 1 13 10 14 6 8 -36 l-7 -47 30 0 c21 0 34 7 42 21 10
20 9 21 -10 16 -18 -4 -20 -3 -10 9 9 11 9 14 -1 14 -7 0 -2 9 11 20 l24 19
-22 1 c-16 0 -23 6 -23 20 0 11 4 20 9 20 5 0 7 9 4 21 -4 12 -11 18 -20 15
-8 -3 -22 -2 -31 2 -12 6 -22 3 -34 -9z"/>
<path d="M990 2390 c0 -6 7 -10 15 -10 8 0 15 2 15 4 0 2 -7 6 -15 10 -8 3
-15 1 -15 -4z"/>
<path d="M1951 2391 c-7 -5 -21 -6 -31 -4 -10 3 -21 0 -25 -7 -5 -8 -11 -8
-22 2 -12 10 -17 9 -24 -5 -8 -13 -15 -14 -34 -7 -14 5 -27 5 -30 1 -3 -5 -14
-7 -25 -4 -39 10 -20 -23 22 -37 48 -17 59 -35 26 -43 -17 -5 -20 -9 -12 -17
9 -9 23 -6 54 10 32 16 39 24 29 30 -9 6 -4 9 16 8 64 -1 76 2 87 27 9 21 9
29 -3 40 -9 9 -19 11 -28 6z m-96 -61 c3 -5 -1 -10 -10 -10 -9 0 -13 5 -10 10
3 6 8 10 10 10 2 0 7 -4 10 -10z"/>
<path d="M2047 2363 c-20 -37 -21 -53 -6 -53 6 0 9 6 6 13 -2 6 2 20 10 29 8
9 13 23 11 30 -3 8 -12 0 -21 -19z"/>
<path d="M2416 2381 c-3 -5 3 -11 15 -14 16 -4 18 -3 8 9 -13 16 -16 17 -23 5z"/>
<path d="M1706 2364 c-9 -22 -8 -24 9 -24 8 0 15 9 15 20 0 24 -15 27 -24 4z"/>
<path d="M1305 2350 c3 -5 13 -10 21 -10 8 0 12 5 9 10 -3 6 -13 10 -21 10 -8
0 -12 -4 -9 -10z"/>
<path d="M1620 2349 c0 -5 5 -7 10 -4 6 3 10 8 10 11 0 2 -4 4 -10 4 -5 0 -10
-5 -10 -11z"/>
<path d="M1153 2323 c5 -10 -30 -43 -37 -35 -3 3 -6 0 -6 -7 0 -7 -9 -20 -20
-29 -14 -13 -17 -25 -13 -45 5 -25 9 -28 31 -22 22 5 24 4 13 -9 -7 -9 -17
-13 -22 -10 -5 3 -1 -9 9 -25 9 -17 25 -31 35 -31 12 0 16 4 10 13 -4 6 -8 17
-8 22 -1 6 -7 9 -13 7 -10 -2 -10 3 -2 17 14 28 13 33 -12 29 -11 -2 -23 3
-25 10 -3 6 0 12 6 12 6 0 11 9 11 20 0 12 6 20 13 18 18 -4 53 34 49 55 -2 9
-8 17 -13 17 -6 0 -8 -3 -6 -7z"/>
<path d="M1705 2310 c-8 -13 15 -13 35 0 12 8 11 10 -7 10 -12 0 -25 -4 -28
-10z"/>
<path d="M2308 2313 c7 -3 16 -2 19 1 4 3 -2 6 -13 5 -11 0 -14 -3 -6 -6z"/>
<path d="M1455 2291 c3 -6 2 -28 -1 -51 -6 -39 -9 -42 -35 -38 -36 6 -36 -3
-1 -55 16 -23 32 -51 36 -62 6 -18 9 -17 28 13 11 18 26 62 33 98 12 65 12 66
-11 75 -13 4 -24 13 -24 19 0 5 -7 10 -16 10 -8 0 -13 -4 -9 -9z m35 -41 c0
-5 -5 -10 -11 -10 -5 0 -7 5 -4 10 3 6 8 10 11 10 2 0 4 -4 4 -10z"/>
<path d="M1925 2291 c-3 -5 -1 -12 4 -15 5 -3 11 1 15 9 6 16 -9 21 -19 6z"/>
<path d="M2256 2285 c-3 -8 -1 -15 4 -15 6 0 10 7 10 15 0 8 -2 15 -4 15 -2 0
-6 -7 -10 -15z"/>
<path d="M2514 2257 c0 -21 5 -34 13 -34 8 0 11 9 8 25 -7 40 -21 45 -21 9z"/>
<path d="M995 2270 c-10 -16 4 -30 28 -29 12 0 16 3 10 6 -7 2 -13 11 -13 19
0 16 -16 19 -25 4z"/>
<path d="M545 2256 c-18 -13 -18 -14 8 -9 15 3 27 9 27 14 0 13 -13 11 -35 -5z"/>
<path d="M940 2260 c0 -5 4 -10 9 -10 6 0 13 5 16 10 3 6 -1 10 -9 10 -9 0
-16 -4 -16 -10z"/>
<path d="M1970 2240 c0 -5 9 -10 20 -10 11 0 20 5 20 10 0 6 -9 10 -20 10 -11
0 -20 -4 -20 -10z"/>
<path d="M336 2207 c-25 -33 -46 -79 -46 -100 1 -7 8 2 17 18 9 17 22 34 30
38 7 5 11 12 8 18 -4 5 1 16 9 25 15 15 21 34 12 34 -3 0 -16 -15 -30 -33z"/>
<path d="M1330 2230 c0 -5 7 -10 15 -10 8 0 15 5 15 10 0 6 -7 10 -15 10 -8 0
-15 -4 -15 -10z"/>
<path d="M1790 2224 c0 -8 -4 -12 -10 -9 -5 3 -10 -1 -10 -10 0 -12 4 -13 18
-6 11 6 24 6 33 0 29 -18 37 -8 13 16 -29 29 -44 32 -44 9z"/>
<path d="M986 2198 c3 -7 20 -20 38 -29 31 -14 33 -14 28 3 -2 10 -13 18 -23
18 -11 0 -19 5 -19 10 0 6 -7 10 -15 10 -8 0 -12 -6 -9 -12z"/>
<path d="M27 2194 c-4 -4 -7 -17 -7 -28 1 -19 1 -20 11 -3 11 19 8 43 -4 31z"/>
<path d="M731 2174 c0 -11 3 -14 6 -6 3 7 2 16 -1 19 -3 4 -6 -2 -5 -13z"/>
<path d="M631 2150 c33 -44 45 -47 53 -14 8 32 10 31 -39 40 l-40 7 26 -33z"/>
<path d="M973 2170 c2 -8 12 -16 23 -17 13 -2 15 -1 4 4 -8 3 -19 11 -23 17
-6 7 -7 6 -4 -4z"/>
<path d="M2400 2159 c-30 -19 -33 -23 -16 -29 17 -6 16 -9 -11 -31 -26 -22
-28 -28 -18 -42 7 -9 19 -17 26 -17 17 0 50 -36 42 -44 -4 -3 -17 -6 -29 -6
-13 0 -26 -4 -29 -10 -4 -6 6 -7 25 -4 19 4 30 2 30 -5 0 -6 -4 -11 -10 -11
-5 0 -10 -9 -10 -20 l0 -21 22 21 c14 12 35 20 58 20 34 0 37 2 32 25 -3 20
-9 24 -26 20 -15 -4 -13 -1 7 10 25 14 31 14 50 3 16 -11 29 -12 50 -4 44 16
29 40 -25 38 -15 0 -26 4 -23 9 7 10 -23 25 -32 15 -3 -3 0 -12 7 -21 10 -12
10 -15 -3 -15 -9 0 -25 12 -37 27 -18 23 -19 28 -5 35 8 5 15 22 15 38 0 30
-13 40 -25 20 -4 -6 -11 -8 -16 -4 -5 3 -7 10 -4 15 10 15 -8 10 -45 -12z m70
-128 c-1 -3 -9 5 -20 18 -11 12 -17 27 -14 33 5 8 34 -35 34 -51z"/>
<path d="M1920 2161 c0 -5 8 -11 18 -13 25 -6 53 2 47 13 -8 12 -65 12 -65 0z"/>
<path d="M465 2150 c-3 -5 -1 -10 4 -10 6 0 11 5 11 10 0 6 -2 10 -4 10 -3 0
-8 -4 -11 -10z"/>
<path d="M1174 2149 c-4 -7 1 -16 10 -21 9 -5 16 -22 16 -38 0 -19 11 -42 30
-62 l29 -33 -8 30 c-29 96 -61 149 -77 124z"/>
<path d="M1220 2153 c0 -4 5 -15 10 -23 8 -13 10 -13 10 2 0 9 -4 20 -10 23
-5 3 -10 3 -10 -2z"/>
<path d="M396 2125 c4 -9 0 -15 -10 -15 -20 0 -37 -32 -26 -49 9 -16 40 -7 40
11 0 7 7 25 14 41 14 25 13 27 -4 27 -13 0 -17 -5 -14 -15z"/>
<path d="M1366 2123 c-2 -10 -8 -34 -12 -53 -4 -19 -9 -38 -10 -42 -1 -5 -2
-11 -3 -15 0 -3 -10 2 -21 12 -11 10 -20 15 -20 10 0 -11 -35 36 -44 59 -3 10
-9 17 -11 14 -3 -3 2 -22 11 -44 35 -83 37 -111 5 -81 -11 10 -13 10 -7 0 5
-8 1 -13 -9 -13 -9 0 -13 5 -10 10 3 6 -3 10 -14 10 -23 0 -36 -16 -21 -25 5
-3 17 -32 26 -63 18 -63 48 -112 68 -112 19 0 49 -37 41 -50 -3 -6 -4 -23 0
-38 4 -22 11 -27 35 -28 27 -1 30 2 31 30 0 17 3 24 6 16 9 -23 30 -40 38 -32
5 4 5 -1 2 -10 -8 -23 21 -25 30 -2 3 8 12 13 20 10 28 -11 33 5 8 29 -14 12
-25 27 -24 31 5 31 -1 36 -26 20 -13 -9 -27 -16 -30 -16 -9 0 -5 21 7 34 15
15 77 0 85 -21 11 -27 24 -12 17 19 -6 31 -6 32 12 18 11 -8 21 -17 24 -20 3
-3 19 -12 35 -19 17 -8 24 -16 18 -18 -7 -3 -13 -12 -13 -21 1 -15 2 -15 11 1
10 17 40 23 52 10 4 -3 -1 -12 -11 -19 -18 -14 -21 -13 60 -19 9 0 19 -3 22
-6 3 -3 21 -3 38 -1 31 5 31 6 9 12 -32 7 -38 26 -11 35 11 3 18 10 16 14 -3
4 8 27 25 52 16 25 29 57 29 75 0 41 -27 94 -48 93 -15 0 -14 -1 1 -8 17 -6
17 -8 3 -20 -9 -7 -13 -17 -10 -22 3 -5 -4 -9 -14 -9 -11 0 -22 6 -25 14 -5
12 -11 13 -37 3 -27 -10 -33 -10 -41 6 -6 9 -15 15 -20 11 -6 -4 -6 -11 2 -20
9 -11 7 -14 -14 -14 -16 0 -31 8 -37 20 -6 11 -17 20 -25 20 -22 0 -18 -15 8
-34 l22 -16 -26 10 c-15 5 -30 6 -35 2 -4 -4 -4 -1 0 6 4 6 2 12 -4 12 -6 0
-17 -14 -24 -31 -16 -38 -29 -24 -28 32 1 46 -22 76 -44 58 -11 -9 -14 -5 -15
22 0 28 -2 30 -8 14 -5 -11 -7 -23 -4 -27 2 -5 -1 -8 -7 -8 -6 0 -8 -11 -6
-25 3 -13 0 -27 -5 -31 -5 -3 -6 -10 -3 -16 5 -7 2 -8 -5 -3 -7 4 -11 18 -9
30 3 16 1 22 -8 18 -7 -2 -10 -11 -7 -19 3 -8 1 -14 -5 -14 -5 0 -12 19 -14
43 -4 41 21 112 46 129 6 4 5 12 -3 22 -17 21 -28 20 -35 -1z m-116 -167 c0
-3 -4 -8 -10 -11 -5 -3 -10 -1 -10 4 0 6 5 11 10 11 6 0 10 -2 10 -4z m190
-57 c0 -27 -2 -30 -15 -19 -11 9 -12 17 -4 31 14 27 19 24 19 -12z m206 -36
c-7 -7 -26 7 -26 19 0 6 6 6 15 -2 9 -7 13 -15 11 -17z m124 23 c0 -2 -7 -7
-16 -10 -8 -3 -12 -2 -9 4 6 10 25 14 25 6z m-270 -26 c0 -5 -5 -10 -11 -10
-5 0 -7 5 -4 10 3 6 8 10 11 10 2 0 4 -4 4 -10z m235 -10 c-3 -5 -12 -10 -18
-10 -7 0 -6 4 3 10 19 12 23 12 15 0z"/>
<path d="M598 2123 c7 -3 16 -2 19 1 4 3 -2 6 -13 5 -11 0 -14 -3 -6 -6z"/>
<path d="M2305 2120 c3 -5 8 -10 11 -10 2 0 4 5 4 10 0 6 -5 10 -11 10 -5 0
-7 -4 -4 -10z"/>
<path d="M1998 2084 c2 -13 8 -24 13 -24 5 0 9 -9 9 -20 0 -14 5 -18 18 -13
15 5 15 4 -1 -9 -18 -13 -18 -14 0 -30 32 -28 58 -30 84 -8 l24 21 -35 -5
c-19 -3 -28 -3 -20 1 8 3 26 14 39 24 17 14 19 19 8 19 -9 0 -19 -4 -22 -10
-12 -20 -27 -10 -23 15 4 20 1 25 -14 25 -11 0 -16 -4 -13 -10 3 -5 -1 -8 -9
-5 -9 3 -23 7 -32 10 -13 4 -14 8 -5 19 9 11 7 15 -7 18 -15 4 -18 1 -14 -18z"/>
<path d="M40 2084 c0 -8 5 -12 10 -9 6 4 8 11 5 16 -9 14 -15 11 -15 -7z"/>
<path d="M1050 2090 c0 -5 4 -10 9 -10 6 0 13 5 16 10 3 6 -1 10 -9 10 -9 0
-16 -4 -16 -10z"/>
<path d="M1830 2090 c0 -5 -7 -10 -15 -10 -8 0 -15 -4 -15 -10 0 -11 15 -12
48 -4 27 8 29 34 2 34 -11 0 -20 -4 -20 -10z"/>
<path d="M2182 2063 c4 -21 33 -25 33 -3 0 8 -8 16 -18 18 -14 3 -18 -1 -15
-15z"/>
<path d="M1588 2050 c-7 -24 -3 -38 8 -28 3 4 4 17 2 30 l-3 23 -7 -25z"/>
<path d="M2306 2061 c-3 -5 1 -11 9 -15 8 -3 15 -1 15 4 0 13 -18 22 -24 11z"/>
<path d="M2178 2023 c6 -10 27 -25 49 -32 21 -8 41 -19 45 -25 6 -8 8 -7 8 1
0 7 -9 17 -19 23 -11 5 -26 16 -33 24 -8 7 -24 17 -37 21 -20 6 -21 5 -13 -12z"/>
<path d="M1907 2024 c-3 -4 -2 -14 3 -24 5 -10 7 -20 4 -22 -3 -3 7 -8 21 -10
36 -7 49 14 24 40 -20 22 -40 28 -52 16z"/>
<path d="M710 2009 c0 -9 -9 -19 -20 -22 -20 -5 -28 -27 -10 -27 15 0 12 -29
-4 -46 -17 -16 -82 -19 -91 -4 -4 6 -11 7 -17 4 -6 -4 -5 -10 3 -15 10 -6 11
-9 2 -9 -7 0 -13 -9 -13 -20 0 -13 7 -20 19 -20 10 0 25 -8 32 -17 11 -15 11
-16 -1 -5 -8 6 -21 12 -29 11 -11 0 -12 -2 -3 -6 6 -2 9 -9 6 -14 -3 -6 -11
-3 -19 7 -12 17 -13 16 -19 -4 -4 -12 -17 -27 -28 -33 -21 -11 -21 -12 5 -26
15 -7 27 -20 27 -28 0 -9 10 -15 24 -15 24 0 53 -24 39 -33 -11 -6 -49 9 -58
22 -3 6 -17 11 -31 11 -14 0 -23 -4 -20 -9 4 -5 0 -12 -6 -14 -7 -3 -1 -6 13
-6 31 -1 64 -31 34 -31 -11 0 -15 -5 -11 -15 9 -26 -37 -18 -81 14 -46 34 -91
116 -76 141 12 18 72 40 128 47 51 7 54 10 22 22 -19 8 -25 15 -20 27 5 13 3
15 -7 9 -9 -5 -11 -4 -6 3 4 7 15 12 24 12 9 0 24 5 32 10 13 9 13 11 0 19 -9
7 -17 6 -21 0 -4 -7 -11 -6 -20 3 -8 7 -22 14 -33 16 -15 3 -18 -1 -13 -17 3
-12 1 -19 -4 -15 -5 3 -9 -1 -10 -8 -1 -7 -5 -2 -9 12 -6 19 -8 20 -9 6 -1
-14 -4 -16 -15 -7 -9 8 -21 8 -40 1 -17 -6 -26 -6 -26 0 0 6 -9 10 -20 10 -20
0 -27 -20 -13 -34 11 -10 10 -40 -1 -48 -6 -4 -5 -12 2 -20 9 -11 7 -14 -9
-15 -12 -1 -32 -9 -46 -18 -20 -14 -24 -22 -18 -43 4 -15 9 -57 12 -94 4 -61
7 -68 25 -68 20 0 20 1 5 18 -21 23 -21 32 -1 32 14 0 14 3 4 15 -7 9 -10 18
-7 21 3 3 10 -4 17 -15 12 -24 30 -28 30 -7 0 8 4 16 10 18 5 2 11 15 12 31 3
37 11 34 31 -11 21 -48 60 -77 128 -95 64 -16 91 -12 59 10 -21 15 -21 16 31
45 l53 31 -29 15 -29 15 22 17 c12 10 22 24 22 30 0 10 4 9 15 0 9 -7 19 -10
22 -6 4 4 1 11 -7 16 -8 6 -11 10 -6 10 5 0 3 7 -4 15 -10 13 -9 15 9 15 12 0
32 -5 43 -11 16 -9 24 -7 36 5 15 15 14 16 -8 16 -39 0 -57 16 -44 37 12 19
58 25 86 11 10 -5 19 -4 23 2 3 5 -1 10 -9 10 -21 0 -31 20 -16 33 10 9 14 9
17 0 7 -18 30 -16 37 3 10 25 7 31 -16 39 -14 4 -18 8 -10 12 27 11 9 20 -35
16 -30 -2 -49 1 -55 9 -6 10 -8 9 -8 -3z m-80 -150 c0 -4 -7 -6 -15 -3 -8 4
-15 10 -15 15 0 4 7 6 15 3 8 -4 15 -10 15 -15z m-270 -49 c0 -5 -4 -10 -10
-10 -5 0 -10 5 -10 10 0 6 5 10 10 10 6 0 10 -4 10 -10z"/>
<path d="M546 1995 c4 -8 10 -15 15 -15 5 0 9 7 9 15 0 8 -7 15 -15 15 -9 0
-12 -6 -9 -15z"/>
<path d="M268 1982 c-27 -3 -34 -14 -42 -63 -1 -8 -8 -25 -15 -38 -11 -19 -11
-25 0 -32 17 -10 29 -2 29 20 0 20 38 67 51 64 5 -2 9 1 9 6 0 5 7 16 15 24
12 13 12 15 -3 19 -9 2 -29 2 -44 0z"/>
<path d="M2608 1968 c8 -8 8 -15 1 -24 -6 -7 -8 -18 -4 -24 12 -20 23 -10 27
25 3 30 1 35 -16 35 -15 0 -17 -3 -8 -12z"/>
<path d="M1098 1943 c6 -2 12 -13 12 -24 0 -10 5 -19 10 -19 11 0 13 11 4 34
-3 9 -14 16 -23 15 -10 0 -11 -2 -3 -6z"/>
<path d="M2215 1941 c-19 -8 -19 -8 3 -20 12 -6 22 -16 22 -21 0 -16 -37 -12
-54 5 -12 12 -20 14 -36 5 -11 -6 -20 -17 -20 -25 0 -11 -5 -12 -23 -4 -25 11
-99 -12 -78 -25 6 -4 11 -12 11 -17 0 -6 -4 -7 -10 -4 -12 8 -13 -15 -1 -34 7
-10 13 -11 31 -1 13 7 41 10 69 6 25 -3 40 -3 34 0 -7 3 -13 9 -13 13 0 4 6 8
13 9 46 4 70 12 88 28 12 11 44 30 72 44 68 34 72 50 12 50 -27 0 -44 -4 -40
-9 8 -14 -30 -32 -50 -25 -9 4 -14 13 -11 20 3 8 4 14 3 13 -1 0 -11 -4 -22
-8z m-145 -116 c0 -8 -7 -15 -16 -15 -14 0 -14 3 -4 15 7 8 14 15 16 15 2 0 4
-7 4 -15z"/>
<path d="M842 1901 c-14 -44 -16 -111 -4 -111 4 0 6 15 4 33 -2 17 3 51 11 75
8 23 11 42 7 42 -4 0 -12 -17 -18 -39z"/>
<path d="M911 1893 c8 -10 20 -24 27 -31 6 -7 12 -18 12 -23 0 -5 5 -9 11 -9
8 0 8 5 -1 15 -7 8 -9 15 -4 15 4 0 -3 11 -16 25 -27 28 -50 34 -29 8z"/>
<path d="M1140 1898 c0 -7 12 -21 26 -32 l26 -18 -16 31 c-17 31 -36 42 -36
19z"/>
<path d="M2478 1885 c-10 -22 -9 -28 3 -36 23 -14 59 -11 59 6 0 8 -5 15 -10
15 -6 0 -10 8 -8 17 5 29 -30 27 -44 -2z"/>
<path d="M2611 1886 c-10 -11 -10 -16 -2 -16 7 0 9 -5 6 -10 -3 -6 -18 -7 -32
-4 -22 6 -25 4 -19 -11 3 -10 1 -25 -6 -33 -10 -12 -10 -14 0 -8 14 8 16 -3 2
-24 -9 -14 -24 -8 -26 11 -1 5 -2 12 -3 15 0 4 -8 1 -16 -6 -9 -7 -13 -21 -9
-35 4 -15 0 -24 -10 -28 -9 -4 -16 -13 -16 -21 0 -7 -8 -16 -18 -18 -15 -4
-18 -13 -16 -44 5 -60 6 -61 28 -57 15 3 28 -5 44 -26 12 -17 17 -31 11 -31
-6 0 -9 -7 -5 -15 3 -9 -3 -24 -14 -35 -21 -21 -12 -26 18 -11 9 5 25 12 35
15 9 3 17 10 17 15 0 5 -8 12 -17 14 -10 2 -8 3 5 2 28 -3 42 21 42 72 0 30
-3 35 -11 23 -8 -12 -9 -9 -5 11 4 19 -1 31 -19 47 -14 12 -25 17 -25 11 0 -5
-4 -8 -9 -5 -5 3 6 22 23 41 19 20 40 60 50 94 20 66 18 93 -3 67z m-36 -242
c-12 -9 -16 -20 -11 -37 4 -18 1 -27 -10 -31 -39 -15 -46 6 -14 46 10 14 16
29 12 33 -4 5 -1 5 6 1 6 -4 12 -2 12 4 0 6 5 8 12 4 8 -5 6 -11 -7 -20z m25
-58 c0 -2 -8 -10 -17 -17 -16 -13 -17 -12 -4 4 13 16 21 21 21 13z"/>
<path d="M1210 1881 c0 -6 4 -13 10 -16 6 -3 7 1 4 9 -7 18 -14 21 -14 7z"/>
<path d="M1917 1853 c-4 -3 -7 -14 -7 -23 0 -10 -9 -29 -20 -43 -15 -18 -17
-26 -7 -30 19 -7 55 22 40 31 -10 6 -9 14 2 36 8 16 15 30 15 32 0 6 -16 5
-23 -3z"/>
<path d="M2347 1830 c-5 -21 0 -25 21 -11 10 6 10 10 -1 20 -12 9 -16 7 -20
-9z"/>
<path d="M192 1833 c1 -5 -6 -22 -15 -40 -19 -36 -22 -63 -7 -63 14 0 28 31
25 58 -1 13 4 26 12 29 18 7 17 23 -2 23 -8 0 -14 -3 -13 -7z"/>
<path d="M770 1810 c0 -5 5 -10 11 -10 5 0 7 5 4 10 -3 6 -8 10 -11 10 -2 0
-4 -4 -4 -10z"/>
<path d="M2182 1801 c-28 -24 -28 -28 4 -28 17 0 22 2 13 7 -10 7 -10 11 0 24
18 22 9 20 -17 -3z"/>
<path d="M2287 1794 c-14 -14 -7 -35 11 -32 9 2 17 10 17 17 0 16 -18 25 -28
15z"/>
<path d="M760 1775 c-6 -7 -8 -20 -4 -29 5 -12 0 -16 -20 -16 -14 0 -26 -4
-26 -10 0 -5 -16 -28 -36 -50 -40 -44 -34 -55 8 -15 14 13 38 27 52 31 15 3
29 10 32 15 3 5 15 9 27 9 18 0 19 2 7 10 -11 7 -7 10 17 10 58 0 48 31 -16
50 -21 6 -33 5 -41 -5z"/>
<path d="M931 1764 c-48 -23 -62 -42 -68 -88 -2 -16 -8 -35 -13 -40 -19 -19
-11 -46 14 -46 26 0 43 -27 26 -44 -18 -18 -12 -46 10 -46 22 0 28 26 8 33
-33 11 12 22 88 21 57 -2 84 2 84 10 0 6 23 28 52 50 l52 38 23 -28 c28 -35
29 -44 4 -44 -27 0 -36 -30 -11 -37 16 -4 18 -8 9 -19 -6 -8 -21 -14 -32 -14
-19 0 -20 -1 -2 -20 10 -11 24 -20 32 -20 8 0 12 -4 9 -9 -3 -4 13 -5 37 -1
23 5 49 4 59 -1 9 -5 23 -6 31 -4 7 3 20 -1 27 -10 7 -8 19 -15 26 -15 8 0 32
-16 53 -36 33 -29 41 -44 46 -82 3 -26 10 -54 15 -63 5 -10 4 -21 -3 -29 -10
-10 -8 -11 8 -5 54 20 75 23 82 12 3 -6 2 -12 -4 -14 -6 -2 -19 -10 -29 -18
-15 -10 -16 -16 -7 -26 17 -17 67 -3 59 17 -3 9 -1 24 4 35 9 16 14 17 30 7
29 -19 50 4 27 30 -15 16 -14 22 11 75 15 32 32 54 36 50 5 -4 6 0 3 10 -5 12
2 27 18 45 35 37 32 52 -9 52 -26 0 -36 5 -41 21 -6 19 16 48 37 49 4 0 15 13
24 29 12 20 22 27 33 23 9 -3 3 6 -14 20 l-29 26 -27 -21 c-21 -15 -53 -22
-131 -28 -172 -15 -192 -17 -212 -25 -13 -5 -17 -4 -13 4 11 16 -14 64 -30 58
-9 -4 -13 3 -13 19 0 18 -5 25 -19 25 -11 0 -22 4 -25 9 -8 12 -54 7 -69 -8
-8 -8 -5 -17 13 -36 13 -14 20 -25 17 -25 -16 0 -67 66 -63 83 2 9 0 15 -5 11
-5 -3 -9 -1 -9 5 0 6 -8 8 -17 5 -15 -5 -16 -4 -3 5 24 17 -4 32 -62 34 -7 0
-21 -3 -30 -7 -10 -5 -29 -2 -45 6 -25 11 -33 11 -72 -8z m81 -21 c30 -27 23
-43 -13 -33 -34 10 -59 27 -59 41 0 15 53 10 72 -8z m88 -36 c0 -8 -7 -14 -15
-14 -16 0 -19 9 -8 20 11 11 23 8 23 -6z m-175 -27 c3 -5 1 -10 -4 -10 -6 0
-11 5 -11 10 0 6 2 10 4 10 3 0 8 -4 11 -10z m172 -36 c-3 -3 -12 -4 -19 -1
-8 3 -5 6 6 6 11 1 17 -2 13 -5z m541 -51 c-15 -2 -42 -2 -60 0 -18 2 -6 4 27
4 33 0 48 -2 33 -4z m-285 -25 c30 -14 31 -17 18 -51 -11 -29 -59 -45 -73 -25
-4 7 -5 27 -2 43 11 51 14 52 57 33z m107 -42 c0 -3 -4 -8 -10 -11 -5 -3 -10
-1 -10 4 0 6 5 11 10 11 6 0 10 -2 10 -4z m60 -66 c0 -5 -5 -10 -11 -10 -5 0
-7 5 -4 10 3 6 8 10 11 10 2 0 4 -4 4 -10z m36 -34 c19 -15 19 -15 -1 -11 -11
2 -23 4 -27 4 -11 1 -10 21 0 21 5 0 17 -6 28 -14z m64 -22 c0 -8 -5 -12 -10
-9 -6 4 -8 11 -5 16 9 14 15 11 15 -7z"/>
<path d="M970 1735 c7 -8 22 -14 34 -14 17 1 17 2 4 6 -10 2 -18 9 -18 14 0 5
-7 9 -16 9 -14 0 -14 -3 -4 -15z"/>
<path d="M1008 1783 c7 -3 16 -2 19 1 4 3 -2 6 -13 5 -11 0 -14 -3 -6 -6z"/>
<path d="M2414 1753 c-3 -10 -10 -26 -15 -35 -12 -24 -11 -28 6 -28 8 0 15 9
15 19 0 11 5 23 10 26 13 8 13 35 0 35 -6 0 -13 -8 -16 -17z"/>
<path d="M1816 1668 c7 -12 44 -10 44 2 0 5 -11 9 -24 8 -14 -1 -22 -6 -20
-10z"/>
<path d="M2011 1656 c-10 -12 -8 -17 7 -25 20 -10 32 1 32 30 0 14 -26 11 -39
-5z"/>
<path d="M140 1624 c0 -7 -5 -14 -11 -16 -7 -2 -10 -9 -8 -15 3 -8 15 -8 42 2
48 16 55 24 37 35 -9 6 -18 3 -27 -8 -11 -14 -12 -14 -8 -1 4 10 0 16 -10 16
-8 0 -15 -6 -15 -13z"/>
<path d="M2351 1613 l-32 -16 32 -15 c29 -15 33 -14 45 3 8 10 14 22 14 26 0
15 -29 16 -59 2z"/>
<path d="M500 1584 c0 -6 7 -17 15 -24 19 -16 39 -1 30 23 -7 18 -45 19 -45 1z"/>
<path d="M1980 1580 c0 -15 52 -92 75 -112 11 -10 25 -17 32 -18 22 0 63 -23
63 -35 0 -11 -61 -35 -89 -35 -6 0 -11 10 -11 21 0 17 -5 20 -21 16 -16 -4
-19 -3 -11 5 7 7 2 18 -19 36 -26 21 -33 23 -56 13 -21 -9 -23 -14 -13 -26 10
-12 9 -15 -4 -15 -9 0 -16 5 -16 12 0 6 -2 9 -5 6 -13 -12 9 -37 37 -43 17 -4
32 -15 35 -25 5 -20 29 -33 44 -25 4 3 17 -3 29 -15 11 -11 30 -20 43 -21 17
-1 14 -3 -11 -10 -22 -7 -30 -14 -25 -22 4 -7 8 -18 10 -26 1 -8 7 -17 13 -21
8 -5 7 -9 -4 -13 -15 -6 -15 -8 1 -25 10 -10 21 -17 25 -15 4 2 9 -1 13 -7 3
-5 15 -10 26 -10 11 0 18 -4 14 -9 -3 -5 -1 -12 5 -16 5 -3 10 -1 10 5 0 14
25 40 39 40 6 0 11 5 11 11 0 6 -8 9 -17 6 -50 -14 -48 -17 -48 78 0 89 0 90
25 90 18 0 29 8 38 30 15 33 34 49 43 34 12 -20 54 15 56 46 1 17 5 44 8 60 5
25 3 24 -13 -11 -37 -77 -135 -109 -211 -69 -29 14 -101 98 -101 116 0 5 -4 9
-10 9 -5 0 -10 -5 -10 -10z"/>
<path d="M630 1565 c0 -16 16 -20 24 -6 3 5 -1 11 -9 15 -9 3 -15 0 -15 -9z"/>
<path d="M105 1510 c-4 -23 -5 -44 -2 -46 3 -3 8 13 12 36 4 23 5 44 2 46 -3
3 -8 -13 -12 -36z"/>
<path d="M2346 1510 c-11 -22 -17 -42 -15 -44 2 -3 22 6 44 20 22 13 34 24 28
24 -7 0 -13 9 -13 20 0 33 -24 22 -44 -20z"/>
<path d="M2438 1543 c7 -3 16 -2 19 1 4 3 -2 6 -13 5 -11 0 -14 -3 -6 -6z"/>
<path d="M835 1521 c-3 -5 -1 -12 5 -16 5 -3 10 1 10 9 0 18 -6 21 -15 7z"/>
<path d="M2169 1514 c-11 -14 -10 -18 6 -30 26 -19 42 -18 55 6 9 16 8 18 -5
14 -10 -4 -15 0 -15 10 0 21 -24 21 -41 0z"/>
<path d="M710 1505 c0 -8 5 -15 10 -15 6 0 10 7 10 15 0 8 -4 15 -10 15 -5 0
-10 -7 -10 -15z"/>
<path d="M1105 1500 c-3 -5 -1 -10 4 -10 6 0 11 5 11 10 0 6 -2 10 -4 10 -3 0
-8 -4 -11 -10z"/>
<path d="M1120 1460 c0 -11 -6 -19 -12 -17 -7 1 -12 -4 -10 -10 1 -7 0 -13 -3
-13 -9 0 -50 24 -56 33 -3 5 -21 7 -40 5 l-34 -4 26 -11 c25 -11 47 -42 31
-44 -4 0 -18 -2 -31 -3 -13 -2 -29 -10 -35 -18 -6 -8 -18 -17 -26 -21 -9 -3
-5 -6 11 -6 14 -1 31 -7 38 -13 10 -11 14 -10 21 3 14 25 88 72 104 66 8 -3
17 1 20 9 3 8 12 14 21 14 22 0 19 27 -5 40 -17 9 -20 8 -20 -10z"/>
<path d="M155 1450 c3 -5 1 -10 -4 -10 -17 0 -13 -36 7 -51 9 -7 14 -9 10 -5
-4 5 -3 15 3 22 12 15 3 54 -12 54 -6 0 -7 -4 -4 -10z"/>
<path d="M194 1449 c-12 -20 11 -30 41 -19 32 12 31 15 -7 24 -15 3 -30 1 -34
-5z"/>
<path d="M800 1452 c-16 -5 -34 -30 -35 -47 -1 -10 44 -45 58 -45 9 0 9 72 -1
86 -4 6 -14 9 -22 6z"/>
<path d="M900 1440 c0 -5 4 -10 9 -10 6 0 13 5 16 10 3 6 -1 10 -9 10 -9 0
-16 -4 -16 -10z"/>
<path d="M2355 1430 c3 -5 11 -10 16 -10 6 0 7 5 4 10 -3 6 -11 10 -16 10 -6
0 -7 -4 -4 -10z"/>
<path d="M109 1428 c0 -2 0 -67 -1 -145 l-1 -141 36 -74 c44 -92 48 -106 36
-114 -19 -11 11 -35 31 -24 20 11 30 4 30 -22 0 -10 6 -18 14 -18 8 0 16 -7
20 -15 4 -11 -1 -15 -18 -15 -20 0 -23 -4 -18 -22 4 -18 2 -20 -16 -16 -12 4
-22 2 -22 -4 0 -5 -5 -6 -11 -2 -6 3 -3 -9 7 -27 10 -19 18 -49 19 -67 1 -18
8 -40 17 -48 21 -21 56 -10 60 19 2 18 8 21 33 18 17 -1 33 -8 37 -15 6 -8 8
-7 8 2 0 7 4 11 9 7 5 -3 12 3 14 12 4 14 5 13 6 -4 0 -12 -5 -23 -11 -26 -8
-2 -1 -10 15 -17 l28 -14 -30 -18 c-23 -15 -35 -17 -49 -9 -11 6 -23 7 -27 3
-3 -4 -6 -2 -5 3 1 6 2 18 1 28 -1 20 -21 24 -21 3 0 -22 -24 -38 -38 -24 -6
6 -15 9 -19 5 -12 -12 29 -34 55 -29 17 3 23 1 18 -7 -4 -6 -2 -11 3 -11 6 0
11 6 12 13 0 6 4 3 8 -8 5 -11 7 -30 5 -42 -4 -19 0 -21 22 -17 19 3 24 1 18
-8 -6 -10 -4 -10 9 0 9 8 21 11 26 8 5 -4 11 6 13 21 3 28 23 31 23 4 0 -14
29 -21 83 -21 13 0 20 -5 17 -10 -3 -6 -13 -10 -21 -10 -14 0 -14 -2 0 -15 18
-19 26 -19 26 -1 0 12 20 26 36 26 2 0 4 -13 4 -30 0 -23 -4 -28 -16 -23 -14
5 -14 3 -3 -16 8 -11 18 -21 24 -21 5 0 4 -4 -4 -9 -9 -6 -10 -11 -3 -15 6 -4
16 3 22 14 14 26 28 25 32 -2 2 -14 12 -24 28 -28 18 -4 25 -13 25 -29 0 -14
10 -28 25 -36 22 -12 23 -14 8 -20 -20 -8 -24 -27 -5 -24 25 3 37 -1 37 -14 0
-16 38 -40 50 -32 6 4 10 14 9 23 0 11 -3 12 -6 5 -8 -21 -22 -15 -16 7 5 19
-4 25 -34 21 -7 -1 -13 5 -13 13 0 10 6 13 15 10 8 -4 15 -1 15 5 0 6 -5 11
-12 11 -6 0 -9 2 -6 5 9 9 38 -6 38 -20 0 -7 9 -15 21 -18 12 -3 18 -10 15
-15 -11 -18 6 -44 24 -39 12 3 22 -4 30 -19 16 -29 40 -35 62 -16 16 13 17 12
8 -19 l-9 -34 24 28 c18 20 31 26 45 22 11 -4 20 -11 20 -16 0 -5 7 -9 15 -9
17 0 20 -16 5 -25 -5 -3 -10 -1 -10 6 0 9 -3 9 -14 0 -11 -9 -15 -9 -18 0 -3
8 -9 7 -20 -5 -9 -9 -32 -17 -51 -18 -33 -3 -34 -4 -18 -24 9 -12 18 -18 21
-14 10 17 61 -3 70 -26 5 -13 17 -24 26 -24 10 0 15 3 11 6 -3 3 -1 18 4 32 8
21 7 29 -7 39 -15 11 -21 10 -36 -4 -18 -16 -25 -8 -10 12 9 13 62 16 62 3 0
-5 6 -3 14 4 10 9 10 15 3 20 -6 4 -8 10 -4 14 4 4 15 0 25 -10 16 -17 16 -19
-5 -33 -27 -18 -29 -30 -7 -30 9 0 20 11 25 25 5 14 13 22 16 18 12 -11 14
-54 4 -61 -16 -9 -1 -35 20 -35 10 0 19 -7 19 -15 0 -12 4 -13 19 -5 24 13 44
13 36 1 -3 -5 -1 -12 5 -16 6 -4 8 -11 5 -16 -4 -5 -1 -9 4 -9 6 0 11 15 12
33 0 17 3 26 6 20 2 -7 11 -13 20 -13 10 0 12 -6 8 -20 -6 -17 -2 -20 29 -20
34 0 49 14 24 22 -6 2 1 16 18 34 16 16 36 39 44 51 8 12 28 23 45 25 30 3 30
3 31 -50 1 -58 14 -86 14 -29 0 57 7 65 48 60 20 -3 38 -9 40 -13 2 -5 10 -6
18 -3 8 3 22 -1 31 -8 15 -12 16 -12 11 3 -4 10 -1 19 9 22 12 5 14 1 10 -14
-4 -17 -3 -19 9 -9 16 13 18 5 4 -21 -7 -13 -7 -21 2 -26 8 -5 6 -10 -8 -15
-27 -11 -54 -10 -29 1 19 8 19 9 -2 9 -14 1 -23 -5 -23 -14 0 -8 -5 -15 -11
-15 -5 0 -8 3 -6 7 3 5 -1 14 -9 21 -12 11 -14 9 -14 -12 0 -25 2 -26 65 -25
57 1 65 4 63 19 -2 9 4 25 12 35 8 11 10 16 4 12 -7 -4 -14 1 -17 13 -7 27 3
32 30 14 13 -8 30 -13 36 -10 7 2 2 8 -11 12 -40 12 -23 39 26 39 23 0 42 -4
42 -10 0 -5 4 -4 9 3 7 11 11 11 23 -1 20 -20 55 -30 63 -17 3 5 1 10 -4 10
-19 0 -12 38 12 64 30 32 129 68 189 68 27 0 45 4 42 9 -3 5 2 12 10 15 9 3
13 11 9 17 -4 6 2 8 14 5 18 -5 20 -2 17 26 -3 27 -3 28 6 8 5 -12 8 -24 7
-25 -3 -5 30 -37 37 -37 3 0 6 7 6 15 0 8 -4 15 -8 15 -13 0 -1 58 15 71 10 9
17 9 25 1 9 -9 7 -12 -8 -13 -10 0 -13 -3 -6 -6 6 -2 9 -9 6 -14 -3 -6 0 -16
6 -24 10 -11 10 -15 1 -15 -7 0 -9 -4 -6 -10 3 -5 1 -10 -6 -10 -7 0 -10 -3
-6 -6 3 -3 12 -2 19 2 7 5 19 9 27 9 8 0 15 6 17 13 1 7 0 8 -3 2 -8 -16 -21
-12 -28 9 -4 12 1 28 12 40 10 11 24 26 31 35 6 8 19 13 27 10 11 -5 15 1 15
20 0 16 6 26 14 26 8 0 17 6 19 12 3 7 6 2 6 -11 1 -23 2 -23 20 -7 11 10 31
19 45 20 18 1 22 4 14 13 -12 14 -4 43 12 43 5 0 10 -16 10 -35 0 -24 -5 -35
-15 -35 -8 0 -15 -8 -15 -17 0 -15 -2 -16 -10 -3 -8 13 -10 12 -10 -2 0 -10
-5 -18 -11 -18 -8 0 -7 -6 2 -17 12 -14 12 -16 0 -8 -11 6 -13 4 -8 -8 7 -18
-19 -32 -27 -14 -3 9 -5 9 -5 0 -1 -18 -16 -16 -35 3 -9 8 -16 11 -16 5 0 -5
5 -13 12 -17 8 -5 7 -10 -4 -18 -14 -10 -13 -13 7 -22 19 -9 22 -8 17 8 -3 13
1 18 16 18 11 0 22 -8 25 -20 3 -11 10 -20 16 -20 6 0 10 3 9 8 -1 4 2 17 6
30 7 22 9 23 27 6 10 -9 16 -20 13 -25 -3 -5 -1 -17 5 -27 5 -10 6 -24 2 -31
-7 -11 -10 -11 -15 0 -3 8 -4 4 -2 -8 2 -13 1 -23 -2 -23 -4 0 -12 -11 -18
-24 -13 -28 -2 -37 49 -41 22 -2 27 1 27 20 0 24 25 41 35 24 4 -5 18 -1 34
10 22 16 31 17 40 8 9 -9 13 -7 17 10 5 18 10 20 36 12 25 -7 28 -6 18 6 -8
10 -9 15 -2 15 6 0 14 -5 17 -10 5 -8 11 -7 21 1 15 13 20 34 5 24 -14 -8 -26
16 -24 45 2 18 -1 16 -9 -10 -7 -23 -13 -29 -15 -18 -2 9 -10 15 -18 12 -7 -3
-16 -1 -20 5 -3 6 -15 11 -25 11 -10 0 -21 3 -24 8 -9 15 -18 87 -10 79 5 -5
9 -13 9 -19 0 -6 8 -12 17 -14 18 -2 32 22 22 38 -4 6 1 8 15 3 11 -3 21 -3
22 2 4 60 7 95 13 128 l8 40 -21 -33 c-12 -18 -21 -40 -21 -49 0 -14 -2 -14
-15 3 -17 23 -19 35 -4 32 7 -2 13 12 15 32 1 19 0 26 -3 16 -3 -11 -11 -26
-19 -34 -16 -16 -18 -38 -4 -47 6 -3 10 -23 9 -43 -1 -38 -3 -36 -13 10 -4 16
-13 28 -21 28 -7 0 -17 5 -21 12 -5 7 -3 8 5 3 10 -6 11 -3 2 13 -13 25 -16
55 -3 34 14 -21 42 20 48 69 6 54 -9 83 -30 57 -7 -10 -16 -15 -19 -11 -4 3
-7 2 -7 -4 0 -5 -7 -10 -15 -10 -8 0 -15 4 -15 9 0 4 4 8 9 8 5 0 11 14 13 30
3 17 1 30 -4 30 -4 0 -8 -5 -8 -12 0 -9 -3 -8 -12 1 -10 11 -10 14 0 18 14 6
16 39 2 48 -6 3 -7 -1 -4 -9 4 -10 1 -16 -9 -16 -9 0 -20 -7 -25 -16 -8 -14
-10 -13 -15 6 -4 16 -2 20 9 16 9 -3 14 1 14 13 0 21 23 44 33 34 4 -3 7 4 7
16 0 17 -4 21 -15 17 -16 -6 -21 9 -5 19 5 3 7 11 5 18 -6 18 22 50 36 42 9
-6 10 -1 7 19 -3 14 -1 26 3 26 5 0 9 7 9 16 0 8 -4 13 -8 10 -5 -3 -9 1 -9 9
0 8 3 14 6 13 29 -3 33 3 18 20 -18 20 -23 37 -8 28 5 -3 11 10 13 30 4 32 3
34 -9 18 -17 -23 -28 -11 -13 15 6 12 8 27 4 33 -5 7 -3 8 6 3 10 -6 11 -2 6
18 -3 14 -2 29 4 32 6 3 7 -1 4 -9 -3 -9 -2 -16 3 -16 5 0 9 9 10 20 1 14 -3
20 -15 18 -19 -3 -50 -94 -57 -163 -4 -44 -48 -147 -71 -166 -8 -6 -14 -24
-14 -40 0 -15 -6 -34 -12 -41 -7 -7 -19 -25 -27 -40 -11 -22 -19 -26 -41 -21
-15 3 -30 1 -33 -5 -4 -5 4 -7 18 -4 25 4 35 -11 15 -23 -6 -4 -7 -11 -4 -17
4 -6 2 -8 -4 -4 -6 3 -14 -3 -17 -15 -4 -11 -44 -58 -88 -103 -66 -66 -91 -85
-129 -95 -26 -8 -46 -17 -43 -21 2 -4 -3 -14 -13 -23 -17 -16 -107 -58 -120
-56 -17 3 -32 -2 -31 -8 3 -21 -3 -31 -23 -38 -36 -11 -90 -19 -128 -19 -33 0
-36 -2 -32 -27 4 -24 1 -27 -17 -22 -12 3 -24 9 -26 14 -8 12 -35 -1 -35 -16
0 -7 6 -16 13 -18 15 -7 -20 -9 -198 -13 -77 -2 -147 -4 -155 -5 -8 0 -20 0
-25 2 -6 1 -23 -1 -38 -6 -21 -5 -33 -3 -48 11 -12 11 -37 20 -56 20 -19 1
-39 7 -43 14 -4 7 -13 9 -20 5 -8 -5 -11 -4 -6 3 8 13 -5 21 -38 24 -14 1 -26
6 -26 9 0 15 -62 37 -95 34 -22 -2 -41 3 -50 12 -8 8 -27 16 -41 19 -48 9 -66
23 -58 47 4 11 13 27 20 35 8 7 12 18 9 23 -4 5 -2 9 4 9 6 0 8 6 5 13 -3 9
-21 14 -49 14 -40 0 -43 -2 -34 -19 5 -10 7 -22 4 -27 -3 -5 5 -12 17 -14 13
-3 7 -4 -12 -4 -34 2 -35 3 -34 40 1 33 0 35 -12 18 -9 -13 -21 -17 -39 -13
-19 3 -23 8 -15 17 5 6 7 15 4 18 -4 3 -3 14 1 24 4 10 9 29 10 43 2 24 2 24
-8 -3 -13 -32 -32 -35 -40 -7 -3 13 -1 19 6 18 7 -2 13 1 14 6 1 5 7 13 15 18
10 8 10 11 0 15 -6 2 -10 8 -8 11 2 4 -7 8 -20 8 -13 1 -24 -2 -24 -7 0 -5 -8
-8 -17 -6 -10 1 -19 -2 -21 -8 -10 -32 -66 -37 -122 -12 -41 18 -119 107 -132
148 -6 22 -17 39 -23 39 -7 0 -20 9 -29 19 -14 15 -14 20 -4 25 10 4 10 7 1
12 -7 3 -9 12 -6 20 4 12 -6 17 -33 13 -3 0 -21 16 -40 35 -26 26 -33 42 -29
56 4 12 0 26 -9 36 -9 8 -16 22 -16 30 0 8 -4 14 -10 14 -5 0 -10 10 -10 23 0
17 -2 19 -10 7 -13 -20 -23 -6 -25 36 -3 49 28 66 45 25 15 -36 47 -45 94 -26
46 20 69 19 96 -3 17 -14 20 -22 12 -42 -11 -30 -5 -50 14 -50 8 0 14 -10 14
-21 0 -18 2 -19 15 -9 20 16 19 40 -1 40 -10 0 -14 6 -10 15 3 10 -1 15 -11
15 -35 0 6 23 49 27 23 3 49 9 56 16 8 6 16 7 20 1 15 -20 51 -34 58 -22 4 6
3 8 -4 4 -25 -15 -22 18 3 38 l27 22 -20 24 c-21 25 -21 25 -37 5 -11 -14 -15
-16 -14 -5 4 47 -8 54 -70 41 -2 -1 3 -9 12 -19 15 -17 15 -19 -1 -33 -32 -27
-59 -29 -81 -5 -12 13 -18 25 -15 29 4 3 -2 5 -12 2 -11 -2 -33 -7 -50 -10
-19 -4 -34 -3 -38 4 -4 6 -2 11 3 11 6 0 11 7 11 16 0 15 -2 15 -23 1 -18 -12
-24 -12 -35 -1 -7 7 -11 19 -10 26 2 9 -8 12 -34 11 -30 -2 -38 1 -38 15 -1
15 -2 15 -16 -3 -13 -17 -16 -18 -24 -5 -5 8 -10 21 -10 29 0 11 3 11 16 1 12
-11 15 -11 12 1 -2 7 -9 20 -15 27 -12 12 -17 34 -14 55 1 6 -8 11 -10 5z
m146 -228 c3 -5 2 -10 -4 -10 -5 0 -13 5 -16 10 -3 6 -2 10 4 10 5 0 13 -4 16
-10z m49 -385 c3 -8 -5 -26 -18 -40 -22 -24 -46 -33 -46 -17 0 4 -3 17 -6 30
-5 17 -2 22 14 22 12 0 24 5 27 10 9 14 22 12 29 -5z m-4 -65 c0 -5 -2 -10 -4
-10 -3 0 -8 5 -11 10 -3 6 -1 10 4 10 6 0 11 -4 11 -10z m2261 -19 c1 -9 1
-20 0 -26 0 -5 6 0 15 13 9 12 20 22 24 22 13 0 6 -49 -7 -55 -7 -2 -13 -10
-13 -17 0 -9 3 -8 10 2 8 13 10 13 10 -2 0 -9 -4 -19 -9 -22 -12 -8 -34 21
-26 34 8 14 -8 13 -22 -1 -9 -9 -10 -6 -6 11 5 18 3 21 -8 15 -11 -6 -11 -5
-2 5 6 7 9 18 7 25 -3 6 2 12 11 12 8 0 16 -7 16 -16z m-2084 -113 c-3 -8 -6
-5 -6 6 -1 11 2 17 5 13 3 -3 4 -12 1 -19z m179 10 c5 -8 2 -9 -9 -5 -10 3
-17 2 -17 -3 0 -5 -7 -7 -16 -3 -13 5 -13 7 -2 14 18 12 36 11 44 -3z m1899 2
c-3 -5 -11 -10 -16 -10 -6 0 -7 5 -4 10 3 6 11 10 16 10 6 0 7 -4 4 -10z m109
-5 c3 -8 1 -15 -4 -15 -6 0 -10 7 -10 15 0 8 2 15 4 15 2 0 6 -7 10 -15z m-36
-58 c7 2 11 -10 10 -33 -1 -36 -12 -52 -23 -34 -3 5 -2 10 3 10 6 0 1 23 -9
51 -11 27 -16 56 -12 62 5 7 10 -2 13 -23 3 -20 11 -34 18 -33z m12 48 c0 -8
-2 -15 -4 -15 -2 0 -6 7 -10 15 -3 8 -1 15 4 15 6 0 10 -7 10 -15z m-133 -1
c-3 -3 -12 -4 -19 -1 -8 3 -5 6 6 6 11 1 17 -2 13 -5z m-2112 -14 c3 -5 -1
-10 -10 -10 -9 0 -13 5 -10 10 3 6 8 10 10 10 2 0 7 -4 10 -10z m109 -16 c5
-14 4 -15 -9 -4 -17 14 -19 20 -6 20 5 0 12 -7 15 -16z m216 -24 c0 -5 -8 -10
-17 -10 -15 0 -16 2 -3 10 19 12 20 12 20 0z m1697 -52 c-3 -7 -5 -2 -5 12 0
14 2 19 5 13 2 -7 2 -19 0 -25z m-26 -21 c-10 -9 -11 -8 -5 6 3 10 9 15 12 12
3 -3 0 -11 -7 -18z m114 -15 c-8 -8 -25 10 -25 26 0 13 2 13 14 -4 8 -10 13
-21 11 -22z m-1855 12 c0 -8 -5 -12 -10 -9 -6 4 -8 11 -5 16 9 14 15 11 15 -7z
m1778 -19 c-3 -3 -9 2 -12 12 -6 14 -5 15 5 6 7 -7 10 -15 7 -18z m202 -14
c-5 -11 -7 -27 -3 -37 4 -12 3 -15 -5 -10 -8 5 -10 2 -6 -8 3 -9 10 -16 16
-16 5 0 6 5 3 10 -3 6 -2 10 3 10 14 0 22 -38 8 -45 -8 -4 -8 -6 1 -11 7 -3 9
-12 6 -20 -5 -13 -7 -13 -14 -2 -7 11 -11 10 -19 -2 -8 -12 -10 -9 -10 13 0
17 -5 27 -15 27 -14 0 -35 29 -35 49 0 6 5 11 11 11 5 0 7 -5 3 -12 -4 -7 -3
-8 5 -4 6 4 9 12 6 17 -4 5 4 13 17 18 13 6 19 10 15 10 -11 1 2 21 14 21 6 0
6 -7 -1 -19z m110 -14 c0 -5 -4 -5 -10 -2 -5 3 -10 14 -10 23 0 15 2 15 10 2
5 -8 10 -19 10 -23z m-460 -38 c0 -5 -7 -9 -15 -9 -9 0 -12 6 -9 15 6 15 24
11 24 -6z m-1540 -29 c0 -5 -4 -10 -10 -10 -5 0 -10 5 -10 10 0 6 5 10 10 10
6 0 10 -4 10 -10z m1380 -6 c0 -20 -28 -24 -33 -5 -3 11 2 17 14 17 11 0 19
-6 19 -12z m-1253 -26 c-3 -8 -6 -5 -6 6 -1 11 2 17 5 13 3 -3 4 -12 1 -19z
m1234 -17 c39 -13 37 -22 -3 -14 -47 9 -62 22 -46 41 12 13 13 13 16 -1 2 -8
16 -20 33 -26z m483 -20 c-8 -9 -22 12 -17 26 6 15 7 14 13 -3 4 -10 6 -21 4
-23z m-564 -41 c0 -5 -5 -10 -11 -10 -5 0 -7 5 -4 10 3 6 8 10 11 10 2 0 4 -4
4 -10z m-1060 -4 c0 -3 -4 -8 -10 -11 -5 -3 -10 -1 -10 4 0 6 5 11 10 11 6 0
10 -2 10 -4z m1620 -56 c0 -5 -5 -10 -11 -10 -5 0 -7 5 -4 10 3 6 8 10 11 10
2 0 4 -4 4 -10z m-832 -35 c-3 -3 -9 2 -12 12 -6 14 -5 15 5 6 7 -7 10 -15 7
-18z m-502 -58 c-8 -39 -30 -55 -34 -26 -6 37 7 69 24 62 12 -4 14 -14 10 -36z"/>
<path d="M2310 1419 c0 -5 5 -7 10 -4 6 3 10 8 10 11 0 2 -4 4 -10 4 -5 0 -10
-5 -10 -11z"/>
<path d="M883 1406 c3 -7 0 -19 -6 -25 -6 -6 -7 -11 -3 -11 5 0 3 -7 -4 -15
-10 -13 -9 -15 8 -15 14 0 20 6 20 18 -1 9 2 27 6 40 6 17 3 22 -9 22 -11 0
-15 -5 -12 -14z"/>
<path d="M278 1385 c2 -14 8 -25 13 -25 5 0 9 11 9 25 0 14 -6 25 -14 25 -9 0
-12 -8 -8 -25z"/>
<path d="M1197 1404 c-11 -12 13 -44 34 -44 24 0 37 29 18 41 -16 10 -43 12
-52 3z"/>
<path d="M1071 1374 c-12 -14 -11 -15 8 -12 12 1 22 7 22 13 1 16 -15 15 -30
-1z"/>
<path d="M259 1358 c-4 -15 -3 -25 1 -23 4 3 13 -2 20 -10 9 -10 9 -15 1 -15
-6 0 -11 -4 -11 -10 0 -17 18 -11 45 15 24 24 25 25 25 5 0 -14 7 -20 21 -20
18 0 19 -2 9 -15 -7 -9 -8 -15 -2 -15 17 0 24 34 9 45 -7 5 -12 15 -10 22 8
21 -15 23 -41 2 -30 -24 -52 -14 -58 24 -3 20 -4 19 -9 -5z"/>
<path d="M663 1358 c-29 -38 -12 -85 25 -71 34 13 41 42 16 67 -19 19 -28 20
-41 4z"/>
<path d="M1740 1331 c0 -22 5 -41 10 -41 6 0 10 7 10 17 0 15 1 15 19 -1 17
-16 20 -16 35 -1 18 18 19 25 10 49 -7 18 -39 22 -49 6 -5 -8 -11 -7 -21 1
-12 9 -14 5 -14 -30z"/>
<path d="M2500 1360 c0 -5 5 -10 11 -10 5 0 7 5 4 10 -3 6 -8 10 -11 10 -2 0
-4 -4 -4 -10z"/>
<path d="M190 1340 c0 -5 7 -10 15 -10 8 0 15 5 15 10 0 6 -7 10 -15 10 -8 0
-15 -4 -15 -10z"/>
<path d="M541 1341 c-10 -6 -10 -10 -1 -16 13 -8 24 -1 19 14 -3 6 -10 7 -18
2z"/>
<path d="M2687 1331 c-3 -11 1 -22 9 -25 19 -7 24 6 9 27 -12 16 -13 16 -18
-2z"/>
<path d="M771 1331 c-22 -14 -6 -38 31 -44 23 -4 37 0 46 11 17 22 15 35 -4
28 -8 -3 -12 -2 -9 4 8 12 -45 13 -64 1z"/>
<path d="M1863 1323 c-4 -10 -16 -30 -27 -46 -18 -25 -19 -29 -4 -43 14 -14
17 -14 36 7 l21 22 12 -25 c6 -14 22 -32 35 -39 28 -15 31 -35 7 -43 -10 -3
-1 -3 21 -1 41 4 59 15 39 22 -24 9 -13 38 17 50 31 12 41 33 15 33 -18 0 -18
5 -5 31 8 15 7 19 -5 19 -8 0 -15 -8 -15 -19 0 -23 -50 -46 -79 -36 -15 4 -21
15 -21 35 0 37 -36 62 -47 33z"/>
<path d="M2868 1333 c7 -3 16 -2 19 1 4 3 -2 6 -13 5 -11 0 -14 -3 -6 -6z"/>
<path d="M1194 1319 c-9 -15 -2 -18 20 -9 17 6 18 7 3 13 -9 3 -19 2 -23 -4z"/>
<path d="M2482 1307 c-12 -12 -36 -24 -53 -25 -17 -1 -40 -7 -50 -13 -24 -12
-59 -3 -59 16 0 17 -30 29 -43 16 -15 -15 2 -49 33 -68 16 -9 27 -20 24 -24
-2 -4 9 -16 25 -25 17 -10 32 -24 33 -32 5 -21 86 54 103 95 12 29 13 39 3 51
-10 13 -10 14 0 8 7 -4 12 -1 12 8 0 21 -3 20 -28 -7z m-112 -103 c0 -8 -5
-12 -10 -9 -6 4 -8 11 -5 16 9 14 15 11 15 -7z"/>
<path d="M881 1286 c-17 -18 -22 -31 -17 -50 7 -28 13 -31 34 -17 9 5 12 23
10 50 l-3 43 -24 -26z"/>
<path d="M1070 1273 c0 -19 -4 -32 -9 -28 -5 3 -17 -2 -25 -11 -9 -9 -16 -11
-16 -4 0 7 -6 5 -15 -4 -20 -19 -32 -76 -16 -76 6 0 11 9 11 20 0 19 4 18 58
-11 57 -31 59 -32 85 -14 l27 17 -21 19 c-12 11 -26 19 -31 19 -5 0 -6 6 -1
13 19 31 4 82 -28 90 -16 4 -19 -1 -19 -30z"/>
<path d="M1770 1270 c0 -11 4 -20 9 -20 5 0 7 9 4 20 -3 11 -7 20 -9 20 -2 0
-4 -9 -4 -20z"/>
<path d="M565 1270 c-3 -5 -1 -10 4 -10 6 0 11 5 11 10 0 6 -2 10 -4 10 -3 0
-8 -4 -11 -10z"/>
<path d="M705 1259 c-4 -5 -3 -9 2 -9 4 0 1 -5 -7 -10 -8 -5 -10 -10 -5 -10 6
0 20 8 33 18 22 17 22 18 3 19 -12 1 -23 -2 -26 -8z"/>
<path d="M1440 1259 c0 -7 -10 -9 -24 -7 -16 3 -27 0 -31 -10 -4 -11 0 -13 20
-8 24 6 35 -7 16 -18 -12 -8 10 -54 28 -61 19 -7 29 4 35 38 4 23 2 27 -9 17
-11 -9 -16 -7 -24 9 -14 25 -14 31 -1 31 6 0 9 -3 9 -7 -1 -5 -1 -15 0 -23 1
-13 3 -13 10 -1 6 9 5 21 -2 33 -13 20 -27 24 -27 7z"/>
<path d="M960 1211 c0 -6 5 -13 10 -16 6 -3 10 1 10 9 0 9 -4 16 -10 16 -5 0
-10 -4 -10 -9z"/>
<path d="M870 1160 c0 -6 -11 -22 -25 -35 -27 -28 -26 -30 10 -13 22 10 29 8
50 -12 14 -13 25 -32 25 -42 0 -10 3 -18 8 -18 4 0 7 17 7 38 0 20 3 45 7 54
7 14 5 16 -9 11 -16 -6 -16 -5 -4 10 12 15 10 17 -28 17 -22 0 -41 -5 -41 -10z"/>
<path d="M1860 1150 c0 -19 3 -21 12 -12 9 9 9 15 0 24 -9 9 -12 7 -12 -12z"/>
<path d="M1341 1148 c1 -7 1 -28 0 -45 -1 -28 -5 -33 -25 -33 -19 0 -26 7 -34
38 -9 34 -10 35 -11 9 -1 -33 -24 -32 -29 1 -3 20 -4 20 -23 4 -25 -21 -24
-30 4 -34 16 -2 26 -15 37 -48 8 -25 19 -51 23 -58 5 -7 7 -31 6 -54 -3 -33 0
-42 15 -44 23 -3 35 -15 20 -21 -6 -2 -9 -14 -7 -27 4 -19 0 -26 -19 -31 -12
-4 -33 -17 -46 -28 -14 -13 -26 -17 -30 -12 -4 6 -14 11 -22 13 -8 2 -23 11
-32 19 -11 10 -18 11 -18 5 0 -7 -11 -9 -28 -6 -51 10 -83 -44 -41 -67 24 -12
69 2 69 21 0 7 6 8 18 1 9 -5 30 -7 46 -4 20 4 27 2 22 -5 -5 -8 -2 -10 8 -6
9 3 16 10 16 15 0 5 7 9 15 9 8 0 15 -5 15 -11 0 -7 12 1 27 17 25 27 27 27
33 9 4 -11 3 -29 -3 -40 -6 -11 -10 -34 -8 -50 1 -17 -2 -41 -7 -54 -8 -21
-10 -22 -25 -7 -15 15 -16 13 -19 -21 -3 -33 -7 -39 -33 -43 -20 -4 -29 -11
-27 -22 1 -9 -4 -18 -13 -22 -8 -3 -15 -10 -15 -15 0 -18 27 -1 39 25 13 29
32 24 24 -6 -3 -11 -1 -20 5 -20 14 0 33 26 25 34 -4 4 3 9 15 13 12 3 22 13
22 22 0 13 2 14 9 2 7 -11 2 -22 -17 -40 -15 -14 -26 -29 -24 -33 1 -5 -3 -18
-9 -30 -9 -16 -7 -26 10 -49 l21 -28 -36 21 c-24 14 -38 18 -46 10 -11 -11 -1
-35 12 -27 4 2 19 -4 33 -15 28 -22 44 -25 49 -10 4 12 60 14 171 6 79 -6 92
-5 127 15 27 16 40 30 40 44 0 28 10 37 26 24 19 -15 34 -2 34 30 0 25 -3 27
-42 27 -24 -1 -48 -4 -54 -8 -7 -4 -17 -1 -24 7 -14 17 -35 21 -25 4 4 -6 -1
-17 -11 -25 -11 -9 -14 -13 -8 -10 7 4 14 -6 16 -25 4 -24 0 -34 -19 -46 -18
-12 -26 -13 -37 -4 -9 8 -28 10 -48 6 -33 -6 -34 -6 -36 30 -2 33 -1 36 18 30
14 -4 20 -2 20 9 0 15 -26 35 -45 33 -5 0 -18 12 -29 26 l-19 26 26 27 c33 33
34 47 5 40 -13 -3 -17 -3 -11 0 9 4 10 11 3 24 -7 13 -6 19 4 23 9 4 12 15 8
33 -4 23 -2 26 12 21 14 -6 17 -2 14 16 -2 12 -9 22 -17 22 -8 0 -16 6 -19 13
-3 9 2 10 20 4 33 -13 48 -4 48 26 0 18 -3 23 -8 14 -5 -8 -16 -10 -28 -6 -36
14 -47 54 -14 54 10 0 24 6 30 13 6 6 19 23 30 36 24 29 34 22 36 -24 0 -26
-4 -36 -18 -41 -21 -6 -22 -13 -7 -34 8 -13 9 -12 7 4 -2 10 3 21 10 23 10 4
18 -22 13 -49 0 -5 6 -8 14 -8 9 0 18 -7 21 -15 10 -24 22 -17 19 11 -2 26 3
27 46 10 10 -4 23 -1 32 8 21 22 34 20 40 -5 3 -13 10 -18 17 -14 9 5 9 10 1
18 -17 17 -13 31 12 42 13 6 23 21 25 38 2 19 9 27 23 27 10 0 19 5 19 10 0 6
-9 10 -20 10 -12 0 -20 7 -21 18 0 10 -3 12 -6 5 -2 -7 -9 -13 -14 -13 -6 0
-8 4 -4 9 3 5 1 12 -5 16 -5 3 -10 -1 -10 -9 0 -9 -6 -16 -12 -17 -15 0 -97
-8 -115 -11 -7 -1 -14 -7 -17 -14 -8 -21 -38 -4 -33 18 3 10 -2 25 -11 34 -12
12 -12 18 -3 24 9 5 7 9 -8 13 -12 3 -21 1 -21 -5 0 -5 -5 -6 -11 -2 -7 4 -9
24 -5 55 6 47 6 49 -17 49 -13 0 -32 -9 -42 -20 -22 -24 -39 -14 -55 36 -11
32 -33 48 -29 22z m376 -222 c1 -1 -9 -6 -23 -13 -14 -7 -22 -7 -18 -1 4 6 0
14 -7 19 -9 6 -4 7 16 3 17 -4 31 -7 32 -8z m-330 -388 c-2 -7 6 -23 19 -34
27 -25 22 -34 -18 -34 -26 0 -29 3 -23 23 4 12 9 30 11 40 3 9 8 17 11 17 2 0
3 -6 0 -12z m-10 -93 c0 -8 -6 -15 -14 -15 -7 0 -13 7 -13 15 0 8 6 15 13 15
8 0 14 -7 14 -15z m48 4 c11 -17 -1 -21 -15 -4 -8 9 -8 15 -2 15 6 0 14 -5 17
-11z"/>
<path d="M1390 1130 c6 -11 13 -20 16 -20 2 0 0 9 -6 20 -6 11 -13 20 -16 20
-2 0 0 -9 6 -20z"/>
<path d="M747 1133 c-12 -11 -8 -23 9 -23 8 0 12 -4 9 -10 -4 -6 5 -9 20 -8
24 2 25 4 9 15 -10 7 -24 13 -32 13 -7 0 -10 5 -7 10 7 11 2 13 -8 3z"/>
<path d="M1017 1111 c-3 -14 4 -24 29 -37 30 -16 35 -17 49 -3 13 13 13 17 -1
37 -20 28 -69 30 -77 3z"/>
<path d="M1251 1114 c0 -11 3 -14 6 -6 3 7 2 16 -1 19 -3 4 -6 -2 -5 -13z"/>
<path d="M1631 1116 c-9 -11 -8 -15 4 -20 9 -3 13 -2 10 4 -3 6 -1 10 4 10 6
0 11 5 11 10 0 14 -16 12 -29 -4z"/>
<path d="M1930 1121 c0 -5 6 -14 14 -20 11 -9 15 -8 20 4 3 9 2 13 -4 10 -6
-3 -10 -1 -10 4 0 6 -4 11 -10 11 -5 0 -10 -4 -10 -9z"/>
<path d="M1778 1095 c-32 -27 -35 -47 -12 -70 13 -13 19 -13 31 -3 21 17 33
52 26 77 -7 26 -12 26 -45 -4z"/>
<path d="M2060 1090 c0 -14 -5 -18 -17 -13 -15 5 -16 4 -5 -8 11 -12 15 -11
26 4 7 9 18 17 25 17 6 0 11 5 11 10 0 6 -9 10 -20 10 -13 0 -20 -7 -20 -20z"/>
<path d="M1535 1082 c-9 -23 -6 -32 10 -32 8 0 15 -6 15 -12 0 -7 5 -20 10
-28 8 -13 11 -12 24 5 8 11 12 23 10 26 -2 4 5 5 16 2 11 -3 20 0 20 6 0 6 0
14 0 19 0 4 -6 7 -12 7 -7 0 -16 4 -20 10 -11 15 -67 13 -73 -3z"/>
<path d="M2217 1073 c-4 -3 -7 -11 -7 -17 0 -6 5 -5 12 2 6 6 9 14 7 17 -3 3
-9 2 -12 -2z"/>
<path d="M1852 1063 c-6 -2 -9 -9 -6 -14 3 -6 0 -18 -8 -27 -12 -15 -11 -16 5
-3 21 16 42 51 30 50 -4 0 -14 -3 -21 -6z"/>
<path d="M886 1044 c-12 -31 -6 -44 20 -44 l25 0 -28 -25 c-31 -28 -14 -26 43
6 20 11 36 14 45 8 16 -10 46 -12 36 -2 -4 3 2 12 13 20 26 18 26 32 0 30 -11
-1 -20 -5 -20 -9 0 -15 -65 -8 -97 11 -27 17 -32 18 -37 5z"/>
<path d="M2249 1048 c-1 -7 -1 -16 0 -20 1 -11 -7 -10 -30 2 -15 8 -19 7 -19
-5 0 -8 -5 -15 -11 -15 -6 0 -9 7 -6 14 4 10 1 13 -9 9 -7 -3 -14 -9 -14 -13
0 -12 -44 -20 -54 -10 -4 4 -15 6 -23 3 -8 -3 -19 0 -24 8 -7 12 -9 11 -9 -1
0 -17 49 -50 74 -50 9 0 16 -4 16 -9 0 -5 9 -7 20 -4 13 4 29 -5 50 -28 28
-32 40 -57 21 -45 -5 3 -8 -5 -7 -18 0 -15 6 -23 16 -21 8 1 29 -8 46 -21 23
-17 38 -21 56 -16 24 7 24 7 -18 42 -24 19 -41 40 -40 45 2 6 -1 18 -6 28 -20
39 7 64 85 81 44 10 33 33 -23 45 -66 14 -90 14 -91 -1z"/>
<path d="M376 1022 c-8 -14 9 -32 35 -37 13 -3 32 -14 42 -26 14 -18 15 -24 5
-37 -11 -13 -10 -14 10 -8 12 4 22 3 22 -2 0 -10 89 -82 102 -82 4 0 8 9 8 19
0 11 5 23 10 26 6 4 8 11 5 16 -4 5 2 9 12 9 17 1 17 1 0 11 -20 12 -37 4 -37
-17 0 -8 -5 -14 -10 -14 -12 0 -9 32 3 41 5 4 3 16 -5 28 -9 15 -10 24 -2 29
6 4 7 18 4 32 -6 21 -8 22 -15 8 -4 -9 -4 -21 -2 -25 3 -5 1 -15 -5 -23 -8
-12 -9 -12 -4 3 3 9 1 17 -5 17 -6 0 -8 4 -5 9 3 5 -1 12 -9 15 -12 4 -14 0
-11 -18 5 -28 -3 -40 -18 -27 -6 5 -15 10 -21 10 -21 2 -45 13 -45 20 0 4 -11
13 -25 19 -31 14 -32 14 -39 4z m184 -142 c0 -5 -2 -10 -4 -10 -3 0 -8 5 -11
10 -3 6 -1 10 4 10 6 0 11 -4 11 -10z"/>
<path d="M1897 1017 c3 -5 -5 -18 -18 -28 -29 -23 -14 -24 35 -4 42 18 43 39
3 41 -15 1 -24 -3 -20 -9z"/>
<path d="M1050 1000 c-6 -11 -7 -20 -3 -20 5 0 14 9 21 20 7 11 8 20 2 20 -5
0 -14 -9 -20 -20z"/>
<path d="M2684 1006 c1 -8 5 -18 8 -22 4 -3 5 1 4 10 -1 8 -5 18 -8 22 -4 3
-5 -1 -4 -10z"/>
<path d="M1175 980 c-11 -5 -35 -9 -52 -9 -38 -1 -41 -9 -14 -38 12 -13 38
-22 72 -26 29 -4 54 -5 56 -3 7 7 -10 36 -18 30 -5 -3 -9 -1 -9 5 0 5 5 13 10
16 9 5 -11 37 -22 34 -2 0 -12 -4 -23 -9z"/>
<path d="M1560 965 c0 -8 2 -15 4 -15 2 0 6 7 10 15 3 8 1 15 -4 15 -6 0 -10
-7 -10 -15z"/>
<path d="M337 963 c-14 -13 -6 -24 22 -34 17 -6 31 -17 33 -26 2 -13 6 -12 20
4 16 17 16 21 2 41 -15 21 -62 31 -77 15z"/>
<path d="M1015 959 c-11 -16 -1 -19 13 -3 7 8 8 14 3 14 -5 0 -13 -5 -16 -11z"/>
<path d="M53 945 c-7 -8 -9 -16 -4 -19 4 -3 16 3 26 14 14 15 15 20 4 20 -8
-1 -20 -7 -26 -15z"/>
<path d="M53 913 c-18 -6 -16 -23 1 -23 17 0 30 16 19 23 -5 2 -14 2 -20 0z"/>
<path d="M2077 872 c-21 -4 -18 -24 4 -30 11 -3 11 -2 -1 7 -9 7 -10 11 -3 11
6 0 15 -4 18 -10 9 -15 25 -12 25 4 0 16 -18 24 -43 18z"/>
<path d="M90 860 c-12 -7 -12 -12 -2 -22 9 -9 12 -9 12 3 0 12 2 12 10 -1 11
-18 25 -7 17 15 -7 17 -16 19 -37 5z"/>
<path d="M1010 840 c0 -32 23 -55 46 -46 10 4 13 12 9 27 -5 14 -2 25 6 30 12
7 11 9 -1 10 -8 1 -25 3 -37 4 -19 2 -23 -3 -23 -25z"/>
<path d="M890 841 c0 -6 5 -13 10 -16 22 -13 10 -44 -20 -52 -17 -5 -26 -12
-22 -18 13 -18 66 -60 58 -47 -5 8 -1 19 10 27 16 12 22 11 38 -3 11 -9 7 0
-9 21 -16 21 -29 46 -30 55 0 10 -4 23 -9 30 -9 14 -26 16 -26 3z"/>
<path d="M694 827 c-20 -23 -6 -36 27 -25 27 9 40 28 20 28 -5 0 -15 2 -23 5
-7 2 -18 -1 -24 -8z"/>
<path d="M957 831 c-16 -6 -16 -8 -2 -26 9 -11 14 -15 11 -8 -4 6 0 13 9 15 8
2 11 8 7 14 -4 6 -15 8 -25 5z"/>
<path d="M1135 830 c3 -5 8 -10 11 -10 2 0 4 5 4 10 0 6 -5 10 -11 10 -5 0 -7
-4 -4 -10z"/>
<path d="M2103 809 c2 -9 0 -25 -6 -35 -10 -18 -9 -18 10 -1 25 22 37 12 15
-14 -20 -23 -72 -26 -72 -4 0 8 7 15 15 15 8 0 15 5 15 10 0 6 -7 10 -16 10
-10 0 -14 6 -10 15 3 9 0 15 -8 15 -9 0 -12 -7 -9 -20 3 -12 -1 -22 -11 -26
-22 -8 -20 -25 2 -18 15 5 15 4 2 -8 -8 -7 -16 -18 -17 -23 -1 -6 -5 -18 -9
-29 -6 -15 -4 -17 14 -12 14 5 24 2 30 -10 8 -14 12 -14 31 -3 11 8 24 22 27
31 5 17 34 37 85 58 14 6 31 22 38 36 6 15 7 23 1 19 -5 -3 -10 -2 -10 4 0 6
-15 4 -35 -5 -31 -13 -36 -13 -41 0 -8 21 -46 16 -41 -5z"/>
<path d="M2731 794 c0 -11 3 -14 6 -6 3 7 2 16 -1 19 -3 4 -6 -2 -5 -13z"/>
<path d="M82 769 c2 -6 8 -10 13 -10 5 0 11 4 13 10 2 6 -4 11 -13 11 -9 0
-15 -5 -13 -11z"/>
<path d="M780 750 c-14 -10 -23 -20 -20 -22 3 -2 19 -10 35 -18 17 -8 33 -19
36 -24 4 -5 15 -5 25 -1 13 5 15 9 6 12 -7 3 -23 20 -35 38 -23 33 -23 33 -47
15z"/>
<path d="M2730 763 c0 -5 5 -15 10 -23 8 -12 10 -11 10 8 0 12 -4 22 -10 22
-5 0 -10 -3 -10 -7z"/>
<path d="M2811 754 c0 -11 3 -14 6 -6 3 7 2 16 -1 19 -3 4 -6 -2 -5 -13z"/>
<path d="M2945 750 c-3 -6 1 -7 9 -4 18 7 21 14 7 14 -6 0 -13 -4 -16 -10z"/>
<path d="M2710 743 c0 -7 -7 -10 -15 -7 -8 4 -15 1 -15 -6 0 -6 4 -9 9 -5 6 3
14 -2 19 -11 6 -11 11 -13 16 -5 4 6 2 19 -3 28 -6 10 -11 13 -11 6z"/>
<path d="M2650 721 c0 -5 5 -13 10 -16 6 -3 10 -2 10 4 0 5 -4 13 -10 16 -5 3
-10 2 -10 -4z"/>
<path d="M645 710 c3 -5 8 -10 11 -10 2 0 4 5 4 10 0 6 -5 10 -11 10 -5 0 -7
-4 -4 -10z"/>
<path d="M70 697 c0 -10 8 -17 18 -17 9 0 13 4 7 8 -5 4 -13 11 -17 16 -5 5
-8 2 -8 -7z"/>
<path d="M90 706 c0 -2 7 -6 15 -10 8 -3 15 -1 15 4 0 6 -7 10 -15 10 -8 0
-15 -2 -15 -4z"/>
<path d="M1870 705 c0 -5 5 -17 10 -25 5 -8 10 -10 10 -5 0 6 -5 17 -10 25 -5
8 -10 11 -10 5z"/>
<path d="M890 682 c0 -7 -4 -11 -9 -7 -5 3 -12 1 -16 -5 -3 -6 4 -10 17 -11
13 0 17 -3 11 -6 -21 -8 -15 -26 7 -20 11 3 20 2 20 -2 0 -4 9 -7 20 -8 18 -2
18 0 5 13 -8 8 -17 13 -20 12 -4 -2 -13 8 -20 22 -8 14 -14 19 -15 12z"/>
<path d="M1460 675 c0 -8 5 -15 10 -15 6 0 10 -7 10 -15 0 -8 5 -15 10 -15 6
0 4 13 -5 30 -17 33 -25 38 -25 15z"/>
<path d="M1935 680 c3 -5 8 -10 11 -10 2 0 4 5 4 10 0 6 -5 10 -11 10 -5 0 -7
-4 -4 -10z"/>
<path d="M2852 660 c0 -14 2 -19 5 -12 2 6 2 18 0 25 -3 6 -5 1 -5 -13z"/>
<path d="M2821 654 c0 -11 3 -14 6 -6 3 7 2 16 -1 19 -3 4 -6 -2 -5 -13z"/>
<path d="M2975 660 c-3 -5 -1 -10 4 -10 6 0 11 5 11 10 0 6 -2 10 -4 10 -3 0
-8 -4 -11 -10z"/>
<path d="M1630 647 c0 -8 -17 -26 -37 -40 -21 -15 -33 -27 -26 -27 6 0 18 -3
27 -6 10 -4 16 -1 16 8 0 7 11 25 24 40 14 14 22 29 19 32 -11 10 -23 7 -23
-7z"/>
<path d="M20 631 c-8 -10 -16 -24 -18 -32 -1 -10 2 -8 11 4 16 19 32 24 21 5
-4 -6 -3 -8 4 -5 5 4 8 16 5 27 -3 11 -6 20 -7 19 0 0 -8 -9 -16 -18z"/>
<path d="M110 625 c7 -9 15 -13 17 -11 7 7 -7 26 -19 26 -6 0 -6 -6 2 -15z"/>
<path d="M2780 625 c0 -8 2 -15 4 -15 2 0 6 7 10 15 3 8 1 15 -4 15 -6 0 -10
-7 -10 -15z"/>
<path d="M195 605 c-19 -15 -24 -24 -15 -24 21 0 53 25 49 38 -2 6 -17 0 -34
-14z"/>
<path d="M975 620 c-3 -5 1 -10 9 -10 9 0 16 5 16 10 0 6 -4 10 -9 10 -6 0
-13 -4 -16 -10z"/>
<path d="M2942 605 c0 -16 2 -22 5 -12 2 9 2 23 0 30 -3 6 -5 -1 -5 -18z"/>
<path d="M70 610 c0 -13 18 -22 24 -11 3 5 -1 11 -9 15 -8 3 -15 1 -15 -4z"/>
<path d="M1499 603 c-13 -15 -12 -15 9 -4 23 12 28 21 13 21 -5 0 -15 -7 -22
-17z"/>
<path d="M983 590 c-13 -5 -23 -15 -23 -22 0 -21 33 -43 58 -40 13 2 30 -2 38
-8 11 -10 14 -9 14 3 0 9 -10 23 -22 32 -13 8 -23 21 -23 27 0 16 -16 18 -42
8z"/>
<path d="M1065 590 c-3 -5 -2 -10 4 -10 5 0 13 5 16 10 3 6 2 10 -4 10 -5 0
-13 -4 -16 -10z"/>
<path d="M2781 584 c0 -11 3 -14 6 -6 3 7 2 16 -1 19 -3 4 -6 -2 -5 -13z"/>
<path d="M2880 584 c0 -8 5 -12 10 -9 6 4 8 11 5 16 -9 14 -15 11 -15 -7z"/>
<path d="M1435 580 c-8 -13 15 -24 27 -12 6 6 4 11 -6 15 -8 3 -18 2 -21 -3z"/>
<path d="M117 550 c-7 -28 -6 -32 9 -22 6 4 8 16 4 26 -6 18 -7 18 -13 -4z"/>
<path d="M150 554 c0 -21 17 -25 22 -6 3 11 0 19 -8 19 -8 0 -14 -6 -14 -13z"/>
<path d="M11 534 c-15 -34 -11 -37 19 -12 14 11 19 16 11 12 -11 -5 -13 -3 -8
9 10 28 -9 19 -22 -9z"/>
<path d="M1750 546 c0 -19 17 -29 25 -16 3 5 1 10 -5 10 -6 0 -8 5 -5 10 3 6
1 10 -4 10 -6 0 -11 -6 -11 -14z"/>
<path d="M2870 528 c0 -36 4 -35 14 5 4 16 2 27 -4 27 -5 0 -10 -14 -10 -32z"/>
<path d="M2901 524 c0 -11 3 -14 6 -6 3 7 2 16 -1 19 -3 4 -6 -2 -5 -13z"/>
<path d="M925 520 c3 -5 8 -10 11 -10 2 0 4 5 4 10 0 6 -5 10 -11 10 -5 0 -7
-4 -4 -10z"/>
<path d="M2777 523 c-11 -10 -8 -33 3 -33 6 0 9 6 8 13 -2 6 5 11 14 11 10 -1
15 2 12 7 -6 11 -28 12 -37 2z"/>
<path d="M2841 494 c0 -11 3 -14 6 -6 3 7 2 16 -1 19 -3 4 -6 -2 -5 -13z"/>
<path d="M236 483 c2 -6 -4 -14 -13 -17 -9 -4 -13 -9 -10 -12 8 -8 47 15 47
27 0 6 -4 8 -9 5 -5 -4 -11 -3 -14 1 -2 5 -2 3 -1 -4z"/>
<path d="M530 470 c0 -5 5 -10 11 -10 5 0 7 5 4 10 -3 6 -8 10 -11 10 -2 0 -4
-4 -4 -10z"/>
<path d="M1100 442 c-34 -50 -34 -52 -12 -52 15 0 22 11 30 42 6 23 10 43 9
44 -1 2 -13 -14 -27 -34z"/>
<path d="M2793 462 c-9 -15 -8 -19 3 -19 8 0 14 9 14 19 0 10 -1 18 -3 18 -1
0 -7 -8 -14 -18z"/>
<path d="M2822 455 c0 -16 2 -22 5 -12 2 9 2 23 0 30 -3 6 -5 -1 -5 -18z"/>
<path d="M2856 458 c3 -4 9 -8 15 -8 5 0 9 4 9 8 0 5 -7 9 -15 9 -8 0 -12 -4
-9 -9z"/>
<path d="M2911 438 c-1 -26 3 -38 13 -38 15 0 15 11 -2 50 -10 24 -11 23 -11
-12z"/>
<path d="M7 453 c-10 -9 -9 -23 1 -23 5 0 9 7 9 15 0 17 -1 18 -10 8z"/>
<path d="M2991 444 c0 -11 3 -14 6 -6 3 7 2 16 -1 19 -3 4 -6 -2 -5 -13z"/>
<path d="M75 440 c6 -10 2 -11 -19 -6 -14 3 -26 2 -26 -3 0 -5 -7 -17 -16 -25
-8 -9 -11 -16 -5 -16 6 0 8 -6 6 -12 -4 -9 7 -13 34 -12 36 0 39 -1 31 -22
-10 -24 -4 -35 14 -28 7 3 11 19 10 37 -2 27 -1 30 10 15 14 -19 39 -9 35 13
-1 8 1 22 6 32 4 11 3 23 -3 29 -8 8 -9 5 -5 -11 4 -15 1 -21 -8 -19 -9 2 -13
-4 -11 -15 3 -16 0 -17 -18 -7 -11 6 -30 8 -40 5 -11 -4 -20 -2 -20 4 0 6 11
13 25 17 26 7 29 24 5 32 -8 3 -10 0 -5 -8z"/>
<path d="M198 433 c7 -3 16 -2 19 1 4 3 -2 6 -13 5 -11 0 -14 -3 -6 -6z"/>
<path d="M235 430 c3 -5 8 -10 11 -10 2 0 4 5 4 10 0 6 -5 10 -11 10 -5 0 -7
-4 -4 -10z"/>
<path d="M2866 422 c-4 -13 -5 -26 -2 -29 10 -11 18 4 14 29 l-4 23 -8 -23z"/>
<path d="M2962 420 c0 -14 2 -19 5 -12 2 6 2 18 0 25 -3 6 -5 1 -5 -13z"/>
<path d="M2782 400 c0 -19 2 -27 5 -17 2 9 2 25 0 35 -3 9 -5 1 -5 -18z"/>
<path d="M1025 410 c-3 -5 -1 -10 4 -10 6 0 11 5 11 10 0 6 -2 10 -4 10 -3 0
-8 -4 -11 -10z"/>
<path d="M2839 398 c-3 -28 -4 -32 -12 -46 -5 -7 -13 -10 -18 -7 -5 4 -9 0 -9
-8 0 -7 6 -14 13 -14 6 0 24 -3 39 -6 33 -7 41 3 32 38 -6 24 -7 25 -21 8 -8
-10 -12 -13 -9 -6 3 6 2 22 -3 35 -8 18 -10 19 -12 6z m26 -68 c-3 -5 -14 -6
-25 -3 -11 3 -18 9 -15 13 3 5 14 6 25 3 11 -3 18 -9 15 -13z"/>
<path d="M2420 390 c0 -5 5 -10 11 -10 5 0 7 5 4 10 -3 6 -8 10 -11 10 -2 0
-4 -4 -4 -10z"/>
<path d="M2806 384 c-8 -20 -8 -24 2 -24 4 0 8 9 9 20 2 24 -3 26 -11 4z"/>
<path d="M2982 380 c0 -14 2 -19 5 -12 2 6 2 18 0 25 -3 6 -5 1 -5 -13z"/>
<path d="M2911 374 c0 -11 3 -14 6 -6 3 7 2 16 -1 19 -3 4 -6 -2 -5 -13z"/>
<path d="M1835 370 c3 -5 8 -10 11 -10 2 0 4 5 4 10 0 6 -5 10 -11 10 -5 0 -7
-4 -4 -10z"/>
<path d="M570 361 c0 -6 4 -13 10 -16 6 -3 7 1 4 9 -7 18 -14 21 -14 7z"/>
<path d="M2692 359 c2 -6 7 -10 12 -9 5 1 13 -4 17 -12 7 -10 9 -9 9 3 0 9 -7
20 -16 23 -22 8 -26 8 -22 -5z"/>
<path d="M2982 330 c0 -14 2 -19 5 -12 2 6 2 18 0 25 -3 6 -5 1 -5 -13z"/>
<path d="M695 330 c-3 -5 -2 -10 4 -10 5 0 13 5 16 10 3 6 2 10 -4 10 -5 0
-13 -4 -16 -10z"/>
<path d="M2370 300 c0 -19 3 -21 12 -12 9 9 9 15 0 24 -9 9 -12 7 -12 -12z"/>
<path d="M475 300 c3 -5 8 -10 11 -10 2 0 4 5 4 10 0 6 -5 10 -11 10 -5 0 -7
-4 -4 -10z"/>
<path d="M2828 282 c-2 -17 -1 -29 4 -26 7 5 12 -8 10 -27 -1 -3 6 -6 14 -6
12 0 14 7 10 29 -3 16 -2 27 2 24 5 -3 9 1 9 8 0 8 -7 12 -15 9 -8 -3 -17 0
-22 7 -5 8 -9 1 -12 -18z"/>
<path d="M80 279 c0 -11 5 -17 10 -14 6 3 10 13 10 21 0 8 -4 14 -10 14 -5 0
-10 -9 -10 -21z"/>
<path d="M376 265 c-16 -25 -16 -25 2 -14 10 6 19 18 19 25 0 19 -2 18 -21
-11z"/>
<path d="M2240 287 c0 -5 5 -17 11 -28 10 -20 29 -18 29 3 0 6 -3 8 -7 5 -3
-4 -12 1 -19 11 -7 9 -14 13 -14 9z"/>
<path d="M2347 233 c-11 -17 13 -28 26 -13 9 10 9 11 0 6 -6 -3 -13 -1 -15 6
-3 9 -6 9 -11 1z"/>
<path d="M434 222 c-17 -11 -12 -40 7 -45 13 -4 17 1 15 19 -3 29 -8 35 -22
26z"/>
<path d="M2947 215 c-4 -8 -2 -17 3 -20 6 -4 10 3 10 14 0 25 -6 27 -13 6z"/>
<path d="M400 213 c-1 -7 -3 -16 -4 -20 -1 -5 -5 -14 -9 -20 -6 -9 -3 -11 7
-7 9 3 16 1 16 -6 0 -6 5 -8 11 -4 7 4 8 9 1 13 -5 3 -12 17 -15 31 -2 14 -5
19 -7 13z"/>
<path d="M2670 185 c0 -14 2 -25 4 -25 2 0 6 11 8 25 3 14 1 25 -3 25 -5 0 -9
-11 -9 -25z"/>
<path d="M2394 174 c8 -16 12 -19 14 -9 2 8 8 13 13 9 5 -3 6 -10 3 -16 -4 -6
-2 -8 4 -4 5 3 13 0 15 -6 4 -9 6 -8 6 2 0 8 -4 22 -9 30 -5 8 -10 12 -10 8 0
-4 -11 -3 -24 2 -22 8 -23 7 -12 -16z"/>
<path d="M2613 183 c-7 -3 -13 -9 -13 -14 0 -12 37 -12 44 0 7 11 -14 20 -31
14z"/>
<path d="M440 158 c0 -4 5 -8 11 -8 5 0 3 -10 -5 -22 -23 -33 -19 -45 4 -15
11 14 20 30 20 37 0 6 5 8 12 4 6 -4 8 -3 4 4 -7 12 -46 12 -46 0z"/>
<path d="M1930 166 c0 -2 7 -9 15 -16 9 -7 15 -8 15 -2 0 5 -7 12 -15 16 -8 3
-15 4 -15 2z"/>
<path d="M2462 146 c2 -12 12 -24 23 -27 12 -3 19 -12 17 -22 -2 -9 3 -17 9
-17 7 0 9 -3 6 -6 -4 -4 -14 -1 -23 7 -15 12 -16 11 -10 -17 6 -26 4 -30 -16
-31 -12 -1 -28 3 -35 9 -10 8 -13 6 -13 -5 0 -11 -7 -15 -20 -12 -11 2 -18 0
-15 -5 7 -12 67 -10 83 3 8 6 12 6 12 -2 0 -7 33 -10 97 -10 79 0 99 4 109 17
7 9 16 13 20 9 5 -4 2 -13 -6 -18 -13 -9 -13 -10 0 -5 8 3 23 9 33 12 9 4 17
11 17 16 0 5 5 6 10 3 14 -9 12 19 -2 33 -9 9 -9 15 1 25 11 10 13 9 8 -5 -3
-9 0 -18 7 -21 6 -3 13 3 13 13 2 22 -35 42 -66 35 -41 -8 -37 -16 5 -9 34 5
44 -5 11 -13 -66 -15 -67 -15 -67 1 0 9 -4 16 -9 16 -6 0 -9 -9 -8 -20 1 -11
6 -20 11 -20 5 0 6 -3 3 -7 -4 -3 -2 -12 4 -20 9 -10 8 -13 -4 -13 -13 0 -31
46 -30 77 1 8 -8 11 -23 9 -14 -3 -25 0 -25 7 -1 7 -5 -4 -9 -23 -6 -30 -8
-31 -9 -9 -1 31 -27 45 -48 27 -12 -10 -18 -9 -29 6 -7 11 -11 22 -9 26 2 4
-3 7 -11 7 -9 0 -14 -8 -12 -21z m92 -42 c3 -8 2 -12 -4 -9 -6 3 -10 10 -10
16 0 14 7 11 14 -7z m173 -25 c-9 -6 -15 -14 -13 -18 3 -4 -1 -8 -9 -8 -8 0
-15 2 -15 4 0 11 27 32 40 32 12 0 11 -2 -3 -10z m-202 -29 c3 -5 2 -10 -4
-10 -5 0 -13 5 -16 10 -3 6 -2 10 4 10 5 0 13 -4 16 -10z"/>
<path d="M371 139 c-13 -5 -21 -12 -18 -15 3 -3 14 -1 25 5 11 6 23 7 27 3 5
-4 5 -1 1 6 -4 6 -8 12 -9 11 -1 0 -13 -5 -26 -10z"/>
<path d="M490 130 c-8 -5 -10 -10 -5 -10 6 0 17 5 25 10 8 5 11 10 5 10 -5 0
-17 -5 -25 -10z"/>
<path d="M2959 123 c-8 -9 -9 -14 -3 -10 7 4 15 -8 22 -33 11 -44 5 -58 -14
-32 -12 15 -15 15 -24 2 -7 -11 -4 -17 13 -22 40 -11 43 -9 43 37 -1 25 -5 45
-9 45 -5 0 -6 4 -2 9 10 18 -13 21 -26 4z"/>
<path d="M718 113 c-9 -10 -13 -24 -10 -32 3 -10 -2 -12 -22 -7 -15 4 -26 2
-26 -4 0 -5 -4 -10 -10 -10 -5 0 -10 7 -10 15 0 13 -2 14 -14 3 -12 -11 -12
-13 0 -16 8 -2 14 -7 14 -12 0 -5 -6 -7 -14 -4 -16 6 -30 -23 -15 -32 6 -3 16
-1 21 4 7 7 17 8 28 2 12 -6 17 -5 17 6 0 9 -6 13 -15 9 -8 -3 -12 0 -10 7 5
16 68 23 68 9 0 -6 -4 -11 -10 -11 -5 0 -10 -5 -10 -10 0 -6 7 -6 19 2 16 10
17 16 8 36 -8 17 -8 28 1 43 15 24 10 25 -10 2z"/>
<path d="M880 121 c0 -6 5 -13 10 -16 6 -3 11 -16 11 -28 1 -17 2 -18 6 -5 4
15 8 16 25 7 28 -15 32 -6 7 22 -11 13 -18 18 -14 12 3 -7 2 -13 -3 -13 -6 0
-12 7 -16 15 -6 16 -26 21 -26 6z"/>
<path d="M654 99 c-5 -9 -2 -10 9 -6 9 3 18 2 21 -4 2 -5 3 -4 2 3 -3 17 -23
21 -32 7z"/>
<path d="M355 90 c3 -5 8 -10 11 -10 2 0 4 5 4 10 0 6 -5 10 -11 10 -5 0 -7
-4 -4 -10z"/>
<path d="M789 78 c-12 -22 -11 -22 8 -6 15 14 22 15 31 6 6 -6 15 -9 19 -5 8
9 4 13 -24 21 -17 5 -25 1 -34 -16z"/>
<path d="M2896 91 c-4 -5 3 -7 14 -4 23 6 26 13 6 13 -8 0 -17 -4 -20 -9z"/>
<path d="M577 73 c7 -17 20 -17 26 1 4 10 0 14 -12 13 -11 -1 -17 -7 -14 -14z"/>
<path d="M1822 59 c6 -16 12 -29 13 -27 6 6 -8 58 -16 58 -4 0 -3 -14 3 -31z"/>
<path d="M475 70 c-3 -5 -1 -10 4 -10 6 0 11 5 11 10 0 6 -2 10 -4 10 -3 0 -8
-4 -11 -10z"/>
<path d="M1638 73 c7 -3 16 -2 19 1 4 3 -2 6 -13 5 -11 0 -14 -3 -6 -6z"/>
<path d="M1887 73 c-4 -3 -7 -11 -7 -17 0 -6 5 -4 10 4 8 12 10 9 10 -11 0
-15 7 -30 16 -33 29 -11 72 -6 78 9 3 8 11 14 17 13 6 -2 13 2 16 9 3 7 -3 9
-16 6 -14 -3 -21 0 -22 8 0 8 -4 4 -9 -8 -7 -17 -18 -23 -40 -23 -19 0 -30 5
-29 13 4 33 -7 47 -24 30z"/>
<path d="M1920 73 c0 -5 5 -15 10 -23 7 -12 9 -10 7 8 -1 19 -17 33 -17 15z"/>
<path d="M1953 65 c-3 -9 -3 -18 -1 -21 3 -3 8 4 11 16 6 23 -1 27 -10 5z"/>
<path d="M2803 65 c0 -10 10 -15 26 -14 16 0 20 3 11 6 -8 3 -20 10 -26 14 -7
5 -11 3 -11 -6z"/>
<path d="M1423 57 c-2 -4 -9 -5 -14 -2 -14 9 -11 -5 5 -21 13 -12 18 -11 41
10 l26 24 -27 -2 c-14 0 -28 -4 -31 -9z"/>
<path d="M455 42 c3 -8 5 -18 5 -23 0 -5 25 -9 55 -9 41 0 55 4 55 14 0 8 8
17 18 19 13 4 11 5 -5 6 -13 0 -23 -4 -23 -11 0 -7 -7 -5 -18 5 -22 20 -95 19
-87 -1z m75 -6 c0 -3 -4 -8 -10 -11 -5 -3 -10 -1 -10 4 0 6 5 11 10 11 6 0 10
-2 10 -4z"/>
<path d="M2350 50 c0 -5 5 -10 11 -10 5 0 7 5 4 10 -3 6 -8 10 -11 10 -2 0 -4
-4 -4 -10z"/>
<path d="M1192 33 c-6 -2 -10 -9 -6 -14 8 -14 21 -11 28 6 6 15 1 17 -22 8z"/>
<path d="M1805 29 c-4 -6 -5 -12 -2 -15 2 -3 7 2 10 11 7 17 1 20 -8 4z"/>
<path d="M740 20 c0 -5 5 -10 11 -10 5 0 7 5 4 10 -3 6 -8 10 -11 10 -2 0 -4
-4 -4 -10z"/>
<path d="M1730 20 c0 -5 5 -10 11 -10 5 0 7 5 4 10 -3 6 -8 10 -11 10 -2 0 -4
-4 -4 -10z"/>
<path d="M2770 22 c0 -5 7 -9 15 -9 8 0 12 4 9 9 -3 4 -9 8 -15 8 -5 0 -9 -4
-9 -8z"/>
</g>
</svg>
